<?xml version="1.0" encoding="UTF-8"?>
<svg width="752pt" height="752pt" version="1.1" viewBox="0 0 752 752" xmlns="http://www.w3.org/2000/svg">
 <path d="m376 538.79c-43.176 0-84.582-17.148-115.11-47.68-30.531-30.527-47.684-71.938-47.684-115.11s17.152-84.582 47.684-115.11c30.527-30.531 71.934-47.684 115.11-47.684s84.586 17.152 115.11 47.684c30.531 30.527 47.68 71.934 47.68 115.11-0.050781 43.16-17.215 84.539-47.734 115.06-30.52 30.52-71.898 47.684-115.06 47.734zm0-295.98c-35.324 0-69.203 14.031-94.18 39.012-24.98 24.977-39.012 58.855-39.012 94.18 0 35.328 14.031 69.207 39.012 94.184 24.977 24.98 58.855 39.012 94.18 39.012 35.328 0 69.207-14.031 94.184-39.012 24.98-24.977 39.012-58.855 39.012-94.184-0.042968-35.312-14.09-69.164-39.059-94.133s-58.824-39.016-94.137-39.059z"/>
</svg>
