<?xml version="1.0" encoding="UTF-8"?>
<svg width="752pt" height="752pt" version="1.1" viewBox="0 0 752 752" xmlns="http://www.w3.org/2000/svg">
 <path d="m416.98 154.71c55.156 4.1641 94.707 52 80.207 121.18 22.297 30.73 26.828 39.012 27.109 48.531 0.25391 8.9492-25.449 8.5898-25.449 8.5898s-5.8281 54.449-7.8008 63.668c-1.9766 9.2148-11.504 8.1875-52.078 10.867-6.1836 12.672-4.3086 45.105-0.62891 56.816 15.484 11.91 36.211 17.68 50.895 32.695 14.301 14.625 28.281 35.461 23.949 68-4.332 32.539-300.7 51.594-302.86 7.0859-1.0938-22.613-2.0312-71.555 68.781-102.34 47.117-20.492 55.512-47.387 59.488-73.754 7.3125-48.555-53.812-84.875-49-139.77 9.1914-104.85 79.855-105.15 127.39-101.57z" fill-rule="evenodd"/>
</svg>
