<?xml version="1.0" encoding="UTF-8"?>
<svg width="752pt" height="752pt" version="1.1" viewBox="0 0 752 752" xmlns="http://www.w3.org/2000/svg">
 <path d="m376 224.46c-40.191 0-78.738 15.965-107.16 44.387-28.422 28.418-44.387 66.965-44.387 107.16 0 40.195 15.965 78.738 44.387 107.16 28.418 28.422 66.965 44.387 107.16 44.387 40.195 0 78.738-15.965 107.16-44.387s44.387-66.965 44.387-107.16c0-40.191-15.965-78.738-44.387-107.16-28.422-28.422-66.965-44.387-107.16-44.387zm0 37.887c19.305-0.058594 38.301 4.832 55.172 14.207l-64.262 80.508h-102.96c4.4766-26.48 18.184-50.523 38.695-67.859 20.508-17.336 46.496-26.852 73.352-26.855zm-112.05 132.6h93.105v93.105c-23.25-3.9688-44.695-15.059-61.371-31.734-16.676-16.68-27.766-38.121-31.734-61.371zm130.99 93.105v-76.672l63.742 42.621c-16.977 17.984-39.355 29.938-63.742 34.051zm84.77-65.688-76.008-50.672 57.066-71.465c14.613 16.328 24.18 36.543 27.539 58.191 3.3633 21.652 0.37891 43.816-8.5977 63.805z"/>
</svg>
