<?xml version="1.0" encoding="UTF-8"?>
<svg width="752pt" height="752pt" version="1.1" viewBox="0 0 752 752" xmlns="http://www.w3.org/2000/svg">
 <path d="m492.61 453.25-77.312-77.27 77.254-77.312c8.9102-8.8789 8.9102-23.16 0.03125-32.07l-7.1758-7.1914c-4.2188-4.3203-9.9883-6.6758-16.059-6.6758h-0.03125c-6.0664 0-11.766 2.3828-16.027 6.6602l-77.281 77.34-77.312-77.254c-8.8633-8.8789-23.133-8.9258-32.039-0.042969l-7.1914 7.1172c-4.3359 4.2461-6.7031 10.02-6.7031 16.07 0 6.082 2.3828 11.809 6.6602 16.07l77.34 77.281-77.27 77.312c-8.9102 8.8789-8.9102 23.16-0.03125 32.102l7.1758 7.1758c4.2461 4.3203 10.004 6.6758 16.07 6.6758 6.0391 0 11.809-2.4141 16.059-6.6602l77.27-77.328 77.281 77.238c4.3789 4.4258 10.211 6.6602 16.059 6.6602 5.7852 0 11.59-2.207 16.012-6.6172l7.1758-7.1641c4.3516-4.2188 6.7031-9.9883 6.7031-16.059 0.03125-6.0664-2.3516-11.797-6.6289-16.07z"/>
</svg>
