<?xml version="1.0" encoding="UTF-8"?>
<svg width="752pt" height="752pt" version="1.1" viewBox="0 0 752 752" xmlns="http://www.w3.org/2000/svg">
 <g>
  <path d="m554.07 257.61-9.9453-52.094c-0.94531-4.2617-4.7344-7.5781-9.4727-7.5781h-13.262l0.003906-38.832c0-2.3672-0.94531-5.2109-2.8398-7.1055-1.8945-1.8945-4.2617-2.8398-7.1055-2.3672l-271.36 14.207c-5.2109 0.47266-8.9961 4.2617-8.9961 9.4727v25.102h-13.262c-4.7344 0-8.5234 3.3164-9.4727 7.5781l-9.9453 52.094c-0.47266 2.8398 0 5.6836 1.8945 8.0508 1.8945 2.3672 4.2617 3.3164 7.1055 3.3164h24.152l3.7891 53.516h-0.47266c-2.8398 0-5.2109 0.94531-7.1055 2.8398-1.8945 1.8945-2.8398 4.7344-2.3672 7.1055l12.312 175.23c0.47266 4.7344 4.2617 8.9961 9.4727 8.9961h3.3164l5.6797 76.715c0.47266 4.7344 4.2617 8.5234 9.4727 8.5234h220.69c4.7344 0 8.9961-3.7891 9.4727-8.5234l6.1562-76.719h3.3164c5.2109 0 8.9961-3.7891 9.4727-8.9961l12.312-175.23c0-2.8398-0.94531-5.2109-2.3672-7.1055-1.8945-1.8945-4.2617-2.8398-7.1055-2.8398h-0.47266l3.7891-53.516h24.152c2.8398 0 5.6836-1.4219 7.1055-3.3164 1.418-2.8398 2.3672-5.6797 1.8906-8.5234zm-304.51-75.773 252.42-13.262v29.363h-252.42zm228.27 401.6h-203.64l-5.2109-66.773h213.59zm18.469-85.246h-240.58l-10.891-156.28h262.36zm1.4219-175.7h-243.42l-3.7891-53.516h251zm-278.94-72.461 6.1562-33.152h301.67l6.1562 33.152z"/>
  <path d="m376 487.29c37.414 0 67.723-30.309 67.723-67.723 0-37.414-30.309-67.246-67.723-67.246s-67.723 30.309-67.723 67.723c0.003906 37.41 30.312 67.246 67.723 67.246zm0-116.03c26.992 0 48.777 21.785 48.777 48.777 0.003906 26.996-21.781 48.309-48.777 48.309-26.992 0-48.777-21.785-48.777-48.777 0-26.996 21.785-48.309 48.777-48.309z"/>
 </g>
</svg>
