<svg width="1600" height="1200" viewBox="0 0 1600 1200" fill="none" xmlns="http://www.w3.org/2000/svg">
<path d="M354.5 350C330.1 337.2 298.667 371 286 389.5C276 402.349 264 479.5 296 471C328 462.5 326.5 468.5 342.5 479.5C330.5 402 435 382 395 389.5C355 397 385 366 354.5 350Z" fill="black" stroke="black"/>
<path d="M403 397C382.5 401.5 342.4 425.1 346 483.5C400 496 418.5 391.195 403 397Z" fill="black"/>
<path d="M685.5 540.5C686.3 539.3 672.833 529 666 524C662.4 534 671.5 542.833 676.5 546C680.5 545.2 684.167 542 685.5 540.5Z" fill="black"/>
<path d="M601 570C587 566.8 580.167 572 578.5 575C587.7 579.8 600.667 580 606 579.5C605.5 578.333 603.8 574.8 601 570Z" fill="black"/>
<path d="M607 429L589 426C589.4 431.6 596.833 435.333 600.5 436.5C606.1 434.5 607.167 430.667 607 429Z" fill="black"/>
<path d="M622.5 577L615 555C607.8 559.4 609 569.167 610.5 573.5C616.9 577.5 621.167 577.5 622.5 577Z" fill="black"/>
<path fill-rule="evenodd" clip-rule="evenodd" d="M391.5 406C396.833 416.833 430.5 433.4 522.5 413C523.399 413 524.432 412.995 525.57 412.99C535.829 412.94 554.599 412.849 560 416C563.59 418.094 577.38 422.514 589.273 425.621C588.842 428.247 590.682 434 601.49 436C591.232 440.267 569.398 436.883 560 433.5C557.312 433.788 554.366 434.113 551.343 434.446C538.618 435.849 524.52 437.404 522.5 437C520 436.5 542 448 545 448C548 448 588 451.5 588.5 470C589.272 471.029 590.073 472.014 590.883 473.01C594.798 477.823 598.929 482.901 601 494.5C616.686 499.534 645.115 510.569 665.5 523.622C664 531.5 665 538 676.5 545.646C671.906 546.294 665.684 545.348 657.5 541C654.318 539.31 651.591 537.718 649.02 536.218C638.662 530.173 630.835 525.605 606 522C606.488 525.784 608.89 536.578 614.698 554.5C611.899 556.667 607.048 563.9 610.407 573.5C598.97 566.781 584.449 550.208 578.5 520.067C558.94 519.878 538.114 521.853 522.5 525.679C541.577 539.804 563.252 543.073 573.825 544.667C574.614 544.786 575.341 544.896 576 545C590.423 551.657 596.366 560.228 601.113 569.5C594.742 568.333 581.3 567.8 578.5 575C562.5 565 526.833 558.5 511 556.5C463.5 554.5 416 527 406.5 518C399.063 510.954 366.833 482.667 351 470C354.2 435.2 379.333 412.833 391.5 406Z" fill="white"/>
<path d="M588.5 470C588 451.5 548 448 545 448C542 448 520 436.5 522.5 437C524.52 437.404 538.618 435.849 551.343 434.446C554.366 434.113 557.312 433.788 560 433.5C569.398 436.883 591.232 440.267 601.49 436M588.5 470C568.9 467.6 550.333 464.667 543.5 463.5C541.167 463.167 534.7 461.5 527.5 457.5M588.5 470C589.272 471.029 590.073 472.014 590.883 473.01C594.798 477.823 598.929 482.901 601 494.5M601 494.5C587 493.5 573 490.5 549.5 492.5C543.5 491.5 538.5 493 532 488M601 494.5C616.686 499.534 645.115 510.569 665.5 523.622M606 522C597.682 520.793 588.248 520.161 578.5 520.067M606 522C606.488 525.784 608.89 536.578 614.698 554.5M606 522C630.835 525.605 638.662 530.173 649.02 536.218C651.591 537.718 654.318 539.31 657.5 541C665.684 545.348 671.906 546.294 676.5 545.646M578.5 520.067C584.449 550.208 598.97 566.781 610.407 573.5M578.5 520.067C558.94 519.878 538.114 521.853 522.5 525.679M610.407 573.5C615.311 576.381 619.649 577.45 622.5 577C619.396 568.545 616.82 561.047 614.698 554.5M610.407 573.5C607.048 563.9 611.899 556.667 614.698 554.5M493 408.5C495.5 407.667 502.6 405.8 511 405M432.5 543.5C435.667 546 446.3 551.8 463.5 555M578.5 575C562.5 565 526.833 558.5 511 556.5C463.5 554.5 416 527 406.5 518C399.063 510.954 366.833 482.667 351 470C354.2 435.2 379.333 412.833 391.5 406C396.833 416.833 430.5 433.4 522.5 413C523.399 413 524.432 412.995 525.57 412.99C535.829 412.94 554.599 412.849 560 416C563.59 418.094 577.38 422.514 589.273 425.621M578.5 575C581.3 567.8 594.742 568.333 601.113 569.5M578.5 575C580.475 575.527 581.791 576.088 583.06 576.629C586.611 578.143 589.792 579.5 606 579.5C605.245 577.989 604.523 576.485 603.807 574.992L603.806 574.991C602.918 573.14 602.038 571.307 601.113 569.5M522.5 525.679C516.895 527.052 511.962 528.664 508 530.5M522.5 525.679C541.577 539.804 563.252 543.073 573.825 544.667C574.614 544.786 575.341 544.896 576 545C590.423 551.657 596.366 560.228 601.113 569.5M589.273 425.621C597.259 427.707 604.389 429.201 607 429C607 432.35 604.875 434.592 601.49 436M589.273 425.621C588.842 428.247 590.682 434 601.49 436M665.5 523.622C674.139 529.153 681.333 535.047 685.5 541C683.79 542.954 680.887 545.027 676.5 545.646M665.5 523.622C664 531.5 665 538 676.5 545.646" stroke="black" stroke-width="2"/>
<path d="M498 836C509.667 834 537.4 827.3 555 816.5" stroke="black" stroke-width="2"/>
<path d="M412 844C440.667 850.667 510.4 856 560 824" stroke="black" stroke-width="2"/>
<path d="M1345.5 574.5L679.5 956.5L609 878.5L859 597L1128 442L1345.5 574.5Z" fill="#111111" stroke="black" stroke-width="2"/>
<path d="M636 967.5L557.5 923.5L574.825 843.5L591.5 766.5L635 754.5L639 756.771L639.37 729.5L641 609.5L686.5 583L696.5 588.973L699 445.5L743.5 419L765 431.676L768 277L807.5 254L1000.5 365V593V771.5L959 795.5L897 760V831.5L850 857.5L797 826V888L751.5 914.5L714 892L712.5 798.5L696.229 875L679 956L636 967.5Z" fill="white"/>
<path d="M591.5 766.5L669 810M591.5 766.5L635 754.5L639 756.771M591.5 766.5L574.825 843.5M669 810L712.5 798.5M669 810L652.867 887M636 967.5L557.5 923.5L574.825 843.5M636 967.5L679 956L696.229 875M636 967.5L652.867 887M712.5 798.5L696.229 875M712.5 798.5L639 756.771M712.5 798.5L714 892L751.5 914.5M574.825 843.5L652.867 887M652.867 887L696.229 875M688.5 813C674 817 674.5 813 671.5 834.5M751.5 914.5L797 888V826M751.5 914.5L751.75 795M797 649L752 675.5M797 649V663.5M797 649L696.5 588.973M752 675.5L751.75 795M752 675.5L641 609.5M751.75 795L797 770.5M751.75 795L639.37 729.5M797 770.5V826M797 770.5V663.5M641 609.5L686.5 583L696.5 588.973M641 609.5L639.37 729.5M639 756.771L639.37 729.5M759.5 714V721M759.5 703.5C758.5 675 761.5 681 779.5 669M788 865C789.5 882 789.5 882.5 772.5 892M850 857.5L897 831.5V760M850 857.5L797 826M850 857.5L850.762 694M897 509.5L851.5 535.5M897 509.5L765 431.676M897 509.5V579.5M851.5 535.5L850.762 694M851.5 535.5L699 445.5M850.762 694L897 670.5M850.762 694L797 663.5M897 670.5V760M897 670.5V579.5M699 445.5L743.5 419L765 431.676M699 445.5L696.5 588.973M888.5 809C889.5 824.5 886.5 828 873 835M878 529.5C861 544 856 532.929 859 591M959 795.5L1000.5 771.5V593M959 795.5L897 760M959 795.5L959.668 614M1000.5 365L960.5 388M1000.5 365L807.5 254L768 277M1000.5 365V593M960.5 388L768 277M960.5 388L959.668 614M768 277L765 431.676M1000.5 593L959.668 614M959.668 614L897 579.5M986.5 381.5C960.478 394 967.5 402 966.5 443M991.5 752C991.5 765 993.5 768 975.5 776.5" stroke="black" stroke-width="2" stroke-linejoin="round"/>
<ellipse cx="595.869" cy="816.02" rx="13.5669" ry="24.5" transform="rotate(16.4703 595.869 816.02)" fill="black"/>
<circle cx="587" cy="803" r="22" fill="white" stroke="black" stroke-width="2"/>
<path d="M598 563C611.5 574.833 626.591 612.747 595 678C564.5 741 573.5 773.5 581 792" stroke="black" stroke-width="2"/>
<ellipse cx="695.763" cy="703.406" rx="11.279" ry="18.6453" transform="rotate(-28.8399 695.763 703.406)" fill="black"/>
<path d="M687.5 698.5C689.5 705.333 697 718.5 711 716.5" stroke="white" stroke-width="3" stroke-linecap="round"/>
<ellipse cx="749.874" cy="532.773" rx="11.279" ry="18.6453" transform="rotate(-28.8399 749.874 532.773)" fill="black"/>
<path d="M741.611 527.867C743.611 534.7 751.111 547.867 765.111 545.867" stroke="white" stroke-width="3" stroke-linecap="round"/>
<ellipse cx="797.874" cy="607.773" rx="11.279" ry="18.6453" transform="rotate(-28.8399 797.874 607.773)" fill="black"/>
<path d="M788.5 591.5C785.5 609 799.111 622.867 813.111 620.867" stroke="white" stroke-width="3" stroke-linecap="round"/>
<ellipse rx="12.7907" ry="20.9238" transform="matrix(0.879917 -0.475127 0.489643 0.871923 862.5 447.321)" fill="black"/>
<path d="M851.822 429.144C848.404 448.691 863.91 464.181 879.858 461.947" stroke="white" stroke-width="3" stroke-linecap="round"/>
<ellipse cx="824.126" cy="378.372" rx="12.6249" ry="20.8703" transform="rotate(-28.8399 824.126 378.372)" fill="black"/>
<path d="M814.878 372.88C817.116 380.529 825.511 395.266 841.182 393.028" stroke="white" stroke-width="3" stroke-linecap="round"/>
<path fill-rule="evenodd" clip-rule="evenodd" d="M798 785.579C801.169 787.199 804.34 787.498 806.868 786.106C807.612 785.696 808.263 785.16 808.818 784.518C804.536 784.201 800.934 782.516 798 780.204V785.579ZM798 776.197C801.147 779.332 805.264 781.626 810.482 781.57C812.052 777.108 811.176 770.548 807.754 764.333C805.149 759.602 801.586 756.012 798 754.099V776.197Z" fill="black"/>
<path fill-rule="evenodd" clip-rule="evenodd" d="M898 716.093C902.015 717.899 906.031 718.233 909.234 716.681C910.248 716.189 911.125 715.536 911.862 714.746C906.36 714.411 901.747 712.47 898 709.794V716.093ZM898 705.995C901.974 709.362 907.176 711.84 913.741 711.797C915.827 706.82 914.742 699.417 910.356 692.408C907.056 687.135 902.543 683.132 898 681V705.995Z" fill="black"/>
<path fill-rule="evenodd" clip-rule="evenodd" d="M889.455 504.951L897 509.5V515.962C901.19 519.562 906.417 521.662 911.803 521.66C913.672 516.673 912.696 509.261 908.755 502.244C903.385 492.682 894.443 487.289 888.232 489.632C888.319 489.87 888.346 490.134 888.299 490.402C887.377 495.68 887.898 500.622 889.455 504.951ZM885.665 502.665C884.866 499.273 884.623 495.623 885.064 491.816C883.2 493.906 882.265 497.02 882.281 500.625L885.665 502.665ZM897 525.638C900.822 527.739 904.694 528.213 907.745 526.565C908.665 526.069 909.458 525.407 910.125 524.608C905.391 524.284 900.873 522.563 897 519.785V525.638Z" fill="black"/>
<circle cx="1074" cy="537" r="11" fill="white"/>
<circle cx="1138" cy="621" r="3" fill="white"/>
<circle cx="1059" cy="711" r="4" fill="white"/>
<circle cx="1126.5" cy="489.5" r="3.5" fill="white"/>
<circle cx="1270.5" cy="576.5" r="2.5" fill="white"/>
<path d="M1196.5 532L1187.5 554.5L1164.5 562L1187.5 571L1195 593.5L1204 571L1226 563.5L1204 554.5L1196.5 532Z" fill="white"/>
<path d="M1039.01 606L1035.35 615.146L1026 618.195L1035.35 621.854L1038.4 631L1042.06 621.854L1051 618.805L1042.06 615.146L1039.01 606Z" fill="white"/>
</svg>
