<svg xmlns="http://www.w3.org/2000/svg" width="1600" height="1200" fill="none" xmlns:v="https://vecta.io/nano"><style><![CDATA[.B{fill:#000}.C{stroke:#fff}.D{stroke-width:3}.E{stroke-linecap:round}.F{stroke:#000}.G{stroke-width:2}.H{fill-rule:evenodd}]]></style><g class="B"><path d="M354.5 350c-24.4-12.8-55.833 21-68.5 39.5-10 12.849-22 90 10 81.5s30.5-2.5 46.5 8.5c-12-77.5 92.5-97.5 52.5-90S385 366 354.5 350z" class="F"/><path d="M403 397c-20.5 4.5-60.6 28.1-57 86.5 54 12.5 72.5-92.305 57-86.5zm282.5 143.5c.8-1.2-12.667-11.5-19.5-16.5-3.6 10 5.5 18.833 10.5 22 4-.8 7.667-4 9-5.5zM601 570c-14-3.2-20.833 2-22.5 5 9.2 4.8 22.167 5 27.5 4.5-.5-1.167-2.2-4.7-5-9.5zm6-141l-18-3c.4 5.6 7.833 9.333 11.5 10.5 5.6-2 6.667-5.833 6.5-7.5zm15.5 148l-7.5-22c-7.2 4.4-6 14.167-4.5 18.5 6.4 4 10.667 4 12 3.5z"/></g><path d="M391.5 406c5.333 10.833 39 27.4 131 7l3.07-.01c10.259-.05 29.029-.141 34.43 3.01 3.59 2.094 17.38 6.514 29.273 9.621-.431 2.626 1.409 8.379 12.217 10.379-10.258 4.267-32.092.883-41.49-2.5l-8.657.946c-12.725 1.403-26.823 2.958-28.843 2.554-2.5-.5 19.5 11 22.5 11s43 3.5 43.5 22c.772 1.029 1.573 2.014 2.383 3.01 3.915 4.813 8.046 9.891 10.117 21.49 15.686 5.034 44.115 16.069 64.5 29.122-1.5 7.878-.5 14.378 11 22.024-4.594.648-10.816-.298-19-4.646-3.182-1.69-5.909-3.282-8.48-4.782-10.358-6.045-18.185-10.613-43.02-14.218.488 3.784 2.89 14.578 8.698 32.5-2.799 2.167-7.65 9.4-4.291 19-11.437-6.719-25.958-23.292-31.907-53.433-19.56-.189-40.386 1.786-56 5.612 19.077 14.125 40.752 17.394 51.325 18.988L576 545c14.423 6.657 20.366 15.228 25.113 24.5-6.371-1.167-19.813-1.7-22.613 5.5-16-10-51.667-16.5-67.5-18.5-47.5-2-95-29.5-104.5-38.5-7.437-7.046-39.667-35.333-55.5-48 3.2-34.8 28.333-57.167 40.5-64z" fill="#fff" class="H"/><g class="F G"><path d="M588.5 470c-.5-18.5-40.5-22-43.5-22s-25-11.5-22.5-11c2.02.404 16.118-1.151 28.843-2.554L560 433.5c9.398 3.383 31.232 6.767 41.49 2.5m-12.99 34c-19.6-2.4-38.167-5.333-45-6.5-2.333-.333-8.8-2-16-6m61 12.5c.772 1.029 1.573 2.014 2.383 3.01 3.915 4.813 8.046 9.891 10.117 21.49m0 0c-14-1-28-4-51.5-2-6-1-11 .5-17.5-4.5m69 6.5c15.686 5.034 44.115 16.069 64.5 29.122M606 522c-8.318-1.207-17.752-1.839-27.5-1.933M606 522c.488 3.784 2.89 14.578 8.698 32.5M606 522c24.835 3.605 32.662 8.173 43.02 14.218 2.571 1.5 5.298 3.092 8.48 4.782 8.184 4.348 14.406 5.294 19 4.646m-98-25.579c5.949 30.141 20.47 46.714 31.907 53.433M578.5 520.067c-19.56-.189-40.386 1.786-56 5.612m87.907 47.821c4.904 2.881 9.242 3.95 12.093 3.5-3.104-8.455-5.68-15.953-7.802-22.5m-4.291 19c-3.359-9.6 1.492-16.833 4.291-19M493 408.5c2.5-.833 9.6-2.7 18-3.5m-78.5 138.5c3.167 2.5 13.8 8.3 31 11.5m115 20c-16-10-51.667-16.5-67.5-18.5-47.5-2-95-29.5-104.5-38.5-7.437-7.046-39.667-35.333-55.5-48 3.2-34.8 28.333-57.167 40.5-64 5.333 10.833 39 27.4 131 7l3.07-.01c10.259-.05 29.029-.141 34.43 3.01 3.59 2.094 17.38 6.514 29.273 9.621M578.5 575c2.8-7.2 16.242-6.667 22.613-5.5M578.5 575c1.975.527 3.291 1.088 4.56 1.629 3.551 1.514 6.732 2.871 22.94 2.871l-2.193-4.508-.001-.001-2.693-5.491M522.5 525.679c-5.605 1.373-10.538 2.985-14.5 4.821m14.5-4.821c19.077 14.125 40.752 17.394 51.325 18.988L576 545c14.423 6.657 20.366 15.228 25.113 24.5m-11.84-143.879c7.986 2.086 15.116 3.58 17.727 3.379 0 3.35-2.125 5.592-5.51 7m-12.217-10.379c-.431 2.626 1.409 8.379 12.217 10.379m64.01 87.622c8.639 5.531 15.833 11.425 20 17.378-1.71 1.954-4.613 4.027-9 4.646m-11-22.024c-1.5 7.878-.5 14.378 11 22.024M498 836c11.667-2 39.4-8.7 57-19.5M412 844c28.667 6.667 98.4 12 148-20"/><path d="M1345.5 574.5l-666 382-70.5-78L859 597l269-155 217.5 132.5z" fill="#111"/></g><path d="M636 967.5l-78.5-44 17.325-80 16.675-77 43.5-12 4 2.271.37-27.271 1.63-120 45.5-26.5 10 5.973L699 445.5l44.5-26.5 21.5 12.676L768 277l39.5-23 193 111v228 178.5l-41.5 24-62-35.5v71.5l-47 26-53-31.5v62l-45.5 26.5L714 892l-1.5-93.5-16.271 76.5L679 956l-43 11.5z" fill="#fff"/><path d="M591.5 766.5L669 810m-77.5-43.5l43.5-12 4 2.271m-47.5 9.729l-16.675 77M669 810l43.5-11.5M669 810l-16.133 77M636 967.5l-78.5-44 17.325-80M636 967.5l43-11.5 17.229-81M636 967.5l16.867-80.5m59.633-88.5L696.229 875m16.271-76.5L639 756.771m73.5 41.729L714 892l37.5 22.5m-176.675-71l78.042 43.5m0 0l43.362-12m-7.729-62c-14.5 4-14 0-17 21.5m80 80L797 888v-62m-45.5 88.5l.25-119.5M797 649l-45 26.5m45-26.5v14.5m0-14.5l-100.5-60.027M752 675.5l-.25 119.5m.25-119.5l-111-66M751.75 795L797 770.5M751.75 795l-112.38-65.5m157.63 41V826m0-55.5v-107m-156-54l45.5-26.5 10 5.973M641 609.5l-1.63 120m-.37 27.271l.37-27.271M759.5 714v7m0-17.5c-1-28.5 2-22.5 20-34.5m8.5 196c1.5 17 1.5 17.5-15.5 27m77.5-34.5l47-26V760m-47 97.5L797 826m53 31.5l.762-163.5M897 509.5l-45.5 26m45.5-26l-132-77.824M897 509.5v70m-45.5-44l-.738 158.5m.738-158.5l-152.5-90M850.762 694L897 670.5M850.762 694L797 663.5m100 7V760m0-89.5v-91m-198-134l44.5-26.5 21.5 12.676M699 445.5l-2.5 143.473M888.5 809c1 15.5-2 19-15.5 26m5-305.5c-17 14.5-22 3.429-19 61.5m100 204.5l41.5-24V593M959 795.5L897 760m62 35.5l.668-181.5m40.832-249l-40 23m40-23l-193-111-39.5 23m232.5 88v228m-40-205L768 277m192.5 111l-.832 226M768 277l-3 154.676M1000.5 593l-40.832 21m0 0L897 579.5m89.5-198c-26.022 12.5-19 20.5-20 61.5m25 309c0 13 2 16-16 24.5" stroke-linejoin="round" class="F G"/><ellipse cx="595.869" cy="816.02" rx="13.567" ry="24.5" transform="rotate(16.47 595.869 816.02)" class="B"/><g class="F G"><circle cx="587" cy="803" r="22" fill="#fff"/><path d="M598 563c13.5 11.833 28.591 49.747-3 115-30.5 63-21.5 95.5-14 114"/></g><ellipse cx="695.763" cy="703.406" rx="11.279" ry="18.645" transform="rotate(331.16 695.763 703.406)" class="B"/><path d="M687.5 698.5c2 6.833 9.5 20 23.5 18" class="C D E"/><ellipse cx="749.874" cy="532.773" rx="11.279" ry="18.645" transform="rotate(331.16 749.874 532.773)" class="B"/><path d="M741.611 527.867c2 6.833 9.5 20 23.5 18" class="C D E"/><ellipse cx="797.874" cy="607.773" rx="11.279" ry="18.645" transform="rotate(331.16 797.874 607.773)" class="B"/><path d="M788.5 591.5c-3 17.5 10.611 31.367 24.611 29.367" class="C D E"/><ellipse rx="12.791" ry="20.924" transform="matrix(.8799 -.475127 .489643 .8719 862.5 447.321)" class="B"/><path d="M851.822 429.144c-3.418 19.547 12.088 35.037 28.036 32.803" class="C D E"/><ellipse cx="824.126" cy="378.372" rx="12.625" ry="20.87" transform="rotate(331.16 824.126 378.372)" class="B"/><path d="M814.878 372.88c2.238 7.649 10.633 22.386 26.304 20.148" class="C D E"/><path d="M798 785.579c3.169 1.62 6.34 1.919 8.868.527a7.1 7.1 0 0 0 1.95-1.588c-4.282-.317-7.884-2.002-10.818-4.314v5.375zm0-9.382c3.147 3.135 7.264 5.429 12.482 5.373 1.57-4.462.694-11.022-2.728-17.237-2.605-4.731-6.168-8.321-9.754-10.234v22.098zm100-60.104c4.015 1.806 8.031 2.14 11.234.588 1.014-.492 1.891-1.145 2.628-1.935-5.502-.335-10.115-2.276-13.862-4.952v6.299zm0-10.098c3.974 3.367 9.176 5.845 15.741 5.802 2.086-4.977 1.001-12.38-3.385-19.389-3.3-5.273-7.813-9.276-12.356-11.408v24.995zm-8.545-201.044L897 509.5v6.462c4.19 3.6 9.417 5.7 14.803 5.698 1.869-4.987.893-12.399-3.048-19.416-5.37-9.562-14.312-14.955-20.523-12.612a1.49 1.49 0 0 1 .067.77c-.922 5.278-.401 10.22 1.156 14.549zm-3.79-2.286c-.799-3.392-1.042-7.042-.601-10.849-1.864 2.09-2.799 5.204-2.783 8.809l3.384 2.04zM897 525.638c3.822 2.101 7.694 2.575 10.745.927a8.09 8.09 0 0 0 2.38-1.957c-4.734-.324-9.252-2.045-13.125-4.823v5.853z" class="B H"/><g fill="#fff"><circle cx="1074" cy="537" r="11"/><circle cx="1138" cy="621" r="3"/><circle cx="1059" cy="711" r="4"/><circle cx="1126.5" cy="489.5" r="3.5"/><circle cx="1270.5" cy="576.5" r="2.5"/><path d="M1196.5 532l-9 22.5-23 7.5 23 9 7.5 22.5 9-22.5 22-7.5-22-9-7.5-22.5zm-157.49 74l-3.66 9.146-9.35 3.049 9.35 3.659 3.05 9.146 3.66-9.146 8.94-3.049-8.94-3.659-3.05-9.146z"/></g></svg>