<svg xmlns="http://www.w3.org/2000/svg" viewBox="0 0 3366 325" fill="none" xmlns:v="https://vecta.io/nano"><path d="M298.35 5c3.3 0 6.15 1.2 8.55 3.6s3.6 5.25 3.6 8.55v68.4c0 3.3-1.2 6.15-3.6 8.55s-5.25 3.6-8.55 3.6H121.5v28.8h147.6c3.3 0 6.15 1.2 8.55 3.6s3.6 5.25 3.6 8.55v67.95c0 3.3-1.2 6.15-3.6 8.55s-5.25 3.6-8.55 3.6H121.5v89.1c0 3.3-1.2 6.15-3.6 8.55s-5.25 3.6-8.55 3.6h-97.2c-3.3 0-6.15-1.2-8.55-3.6S0 311.15 0 307.85V17.15C0 13.85 1.2 11 3.6 8.6S8.85 5 12.15 5h286.2zm408.874 301.05c.6 1.2.9 2.55.9 4.05 0 2.7-1.05 5.1-3.15 7.2-1.8 1.8-4.05 2.7-6.75 2.7h-102.15c-4.2 0-8.1-1.05-11.7-3.15-3.3-2.1-5.7-4.8-7.2-8.1l-39.6-89.1h-37.8v88.2c0 3.3-1.2 6.15-3.6 8.55s-5.25 3.6-8.55 3.6h-97.2c-3.3 0-6.15-1.2-8.55-3.6s-3.6-5.25-3.6-8.55V17.15c0-3.3 1.2-6.15 3.6-8.55s5.25-3.6 8.55-3.6h175.05c27 0 50.55 4.35 70.65 13.05 20.4 8.7 36 21.3 46.8 37.8s16.2 35.85 16.2 58.05c0 40.8-15.75 70.35-47.25 88.65l55.35 103.5zm-151.2-169.65c6.6 0 11.7-2.1 15.3-6.3 3.6-4.5 5.4-10.05 5.4-16.65s-1.8-12.3-5.4-17.1c-3.3-5.1-8.4-7.65-15.3-7.65h-56.25v47.7h56.25zm290.074 168.3c-3.9 10.2-10.65 15.3-20.25 15.3h-85.05c-2.7 0-5.1-.9-7.2-2.7-1.8-2.1-2.7-4.5-2.7-7.2l.45-2.7 98.1-287.55c1.2-3.9 3.45-7.35 6.75-10.35s7.8-4.5 13.5-4.5h125.1c5.7 0 10.2 1.5 13.5 4.5s5.55 6.45 6.75 10.35l98.102 287.55.45 2.7c0 2.7-1.05 5.1-3.15 7.2-1.8 1.8-4.05 2.7-6.75 2.7h-85.052c-9.6 0-16.35-5.1-20.25-15.3l-11.25-31.5h-109.8l-11.25 31.5zm66.15-212.85l-31.95 93.6h63.9l-31.95-93.6zM1251.82 198.5c0 12.3 4.05 21.75 12.15 28.35 8.4 6.6 19.65 9.9 33.75 9.9 12.6 0 21.9-2.1 27.9-6.3s11.1-10.5 15.3-18.9c3.9-7.8 9.15-11.7 15.75-11.7h97.2c2.7 0 4.95 1.05 6.75 3.15 2.1 1.8 3.15 4.05 3.15 6.75 0 18.3-6.15 36.3-18.45 54-12.3 17.4-31.05 31.95-56.25 43.65-24.9 11.4-55.35 17.1-91.35 17.1-32.1 0-60.75-4.8-85.95-14.4-24.9-9.9-44.7-24.9-59.4-45-14.7-20.4-22.05-45.75-22.05-76.05v-53.1c0-30.3 7.35-55.5 22.05-75.6 14.7-20.4 34.5-35.4 59.4-45 25.2-9.9 53.85-14.85 85.95-14.85 36 0 66.45 5.85 91.35 17.55 25.2 11.4 43.95 25.95 56.25 43.65 12.3 17.4 18.45 35.25 18.45 53.55 0 2.7-1.05 5.1-3.15 7.2-1.8 1.8-4.05 2.7-6.75 2.7h-97.2c-6.6 0-11.85-3.9-15.75-11.7-4.2-8.4-9.3-14.7-15.3-18.9s-15.3-6.3-27.9-6.3c-14.1 0-25.35 3.3-33.75 9.9-8.1 6.6-12.15 16.05-12.15 28.35v72zM1830.8 5c3.3 0 6.15 1.2 8.55 3.6s3.6 5.25 3.6 8.55V89.6c0 3.3-1.2 6.15-3.6 8.55s-5.25 3.6-8.55 3.6h-96.75v206.1c0 3.3-1.2 6.15-3.6 8.55s-5.25 3.6-8.55 3.6h-92.7c-3.3 0-6.15-1.2-8.55-3.6s-3.6-5.25-3.6-8.55v-206.1h-96.75c-3.3 0-6.15-1.2-8.55-3.6s-3.6-5.25-3.6-8.55V17.15c0-3.3 1.2-6.15 3.6-8.55S1517 5 1520.3 5h310.5zm288.27 222.75h81.45c3.3 0 6.15 1.2 8.55 3.6s3.6 5.25 3.6 8.55v67.95c0 3.3-1.2 6.15-3.6 8.55s-5.25 3.6-8.55 3.6h-285.3c-3.3 0-6.15-1.2-8.55-3.6s-3.6-5.25-3.6-8.55V239.9c0-3.3 1.2-6.15 3.6-8.55s5.25-3.6 8.55-3.6h82.35V97.25h-82.35c-3.3 0-6.15-1.2-8.55-3.6s-3.6-5.25-3.6-8.55V17.15c0-3.3 1.2-6.15 3.6-8.55s5.25-3.6 8.55-3.6h285.3c3.3 0 6.15 1.2 8.55 3.6s3.6 5.25 3.6 8.55V85.1c0 3.3-1.2 6.15-3.6 8.55s-5.25 3.6-8.55 3.6h-81.45v130.5zm488.53-37.8c0 45.9-15.3 79.8-45.9 101.7-30.3 21.9-70.8 32.85-121.5 32.85s-91.35-10.95-121.95-32.85c-30.3-21.9-45.45-56.1-45.45-102.6v-53.1c0-30.6 7.2-55.95 21.6-76.05 14.7-20.4 34.65-35.4 59.85-45S2408.1.5 2440.2.5s60.6 4.8 85.5 14.4c25.2 9.6 45.15 24.45 59.85 44.55s22.05 45.3 22.05 75.6v54.9zm-213.3 8.55c0 12.3 4.05 21.75 12.15 28.35 8.4 6.6 19.65 9.9 33.75 9.9s25.2-3.3 33.3-9.9c8.4-6.9 12.6-16.5 12.6-28.8v-71.1c0-12.3-4.2-21.75-12.6-28.35-8.1-6.9-19.2-10.35-33.3-10.35s-25.35 3.3-33.75 9.9c-8.1 6.6-12.15 16.05-12.15 28.35v72zM2963.37 5c3.3 0 6.15 1.2 8.55 3.6s3.6 5.25 3.6 8.55v290.7c0 3.3-1.2 6.15-3.6 8.55s-5.25 3.6-8.55 3.6h-72.45c-7.2 0-13.2-3.15-18-9.45l-98.1-125.1v122.4c0 3.3-1.2 6.15-3.6 8.55s-5.25 3.6-8.55 3.6h-83.7c-3.3 0-6.15-1.2-8.55-3.6s-3.6-5.25-3.6-8.55V17.15c0-3.3 1.2-6.15 3.6-8.55s5.25-3.6 8.55-3.6h72.9c7.2 0 13.05 3 17.55 9l98.1 135.45V17.15c0-3.3 1.2-6.15 3.6-8.55s5.25-3.6 8.55-3.6h83.7zm266.22 114.3c33 3.6 59.4 9.45 79.2 17.55 20.1 8.1 34.65 18.75 43.65 31.95s13.5 29.7 13.5 49.5c0 21.6-7.05 40.5-21.15 56.7-13.8 15.9-33 28.2-57.6 36.9-24.6 8.4-52.65 12.6-84.15 12.6-35.1 0-64.8-4.35-89.1-13.05s-42.45-20.25-54.45-34.65c-12-14.7-18-30.75-18-48.15 0-3 .9-5.4 2.7-7.2 2.1-1.8 4.65-2.7 7.65-2.7h92.25c6.3 0 11.4 1.95 15.3 5.85 5.1 4.8 10.8 8.1 17.1 9.9 6.3 1.5 15.15 2.25 26.55 2.25 28.5 0 42.75-4.35 42.75-13.05 0-3.6-1.95-6.6-5.85-9-3.6-2.7-10.2-4.95-19.8-6.75-9.3-2.1-23.1-4.2-41.4-6.3-41.1-4.8-72.6-15-94.5-30.6-21.9-15.9-32.85-38.25-32.85-67.05 0-20.4 6.15-38.4 18.45-54s29.7-27.75 52.2-36.45c22.8-8.7 49.2-13.05 79.2-13.05 31.2 0 58.5 4.95 81.9 14.85 23.4 9.6 41.25 21.6 53.55 36s18.45 28.5 18.45 42.3c0 3-1.05 5.4-3.15 7.2-1.8 1.8-4.35 2.7-7.65 2.7h-96.75c-5.1 0-9.75-1.8-13.95-5.4-3.3-3-7.2-5.4-11.7-7.2s-11.4-2.7-20.7-2.7c-20.1 0-30.15 4.2-30.15 12.6 0 4.5 3.9 8.1 11.7 10.8 7.8 2.4 23.4 4.95 46.8 7.65z" fill="#000"/></svg>