<svg width="1440" height="1440" viewBox="0 0 1440 1440" fill="none" xmlns="http://www.w3.org/2000/svg">
<rect width="1440" height="1440" rx="200" fill="white"/>
<rect width="1440" height="1440" fill="black"/>
<path fill-rule="evenodd" clip-rule="evenodd" d="M284.911 626.34C286.162 620.511 292.712 617.666 298.064 620.293C302.288 622.368 306.627 624.323 311.081 626.143C348.6 641.47 388.99 645.118 426.924 648.545C479.64 653.306 527.612 657.639 556.542 692.291C606.29 751.88 669.159 802.175 732.027 772.107C758.293 759.545 760.321 702.42 762.471 641.875C765.467 557.504 768.698 466.492 838.084 480.178C889.493 490.319 934.697 533.113 976.153 572.36C1030.8 624.094 1078.93 669.663 1126.19 626.143C1130.41 622.25 1134.64 618.355 1138.86 614.469C1143.84 609.891 1151.87 612.234 1153.41 618.818C1160.99 651.375 1165 685.305 1165 720.172C1165 965.939 965.767 1165.17 720 1165.17C474.233 1165.17 275 965.939 275 720.172C275 687.982 278.418 656.59 284.911 626.34Z" fill="#CEFF9D"/>
<circle cx="720" cy="720.007" r="444.5" stroke="black"/>
</svg>
