<svg width="68" height="68" viewBox="0 0 68 68" fill="none" xmlns="http://www.w3.org/2000/svg">
<path d="M34 6.79999C18.9788 6.79999 6.80005 18.9788 6.80005 34C6.80005 46.7455 15.5766 57.4101 27.4086 60.3613C27.2816 59.9941 27.2 59.568 27.2 59.0399V54.3909C26.0962 54.3909 24.2466 54.3909 23.7819 54.3909C21.921 54.3909 20.2663 53.5908 19.4639 52.1039C18.5731 50.4515 18.419 47.9241 16.2112 46.3783C15.5562 45.8637 16.0548 45.2767 16.8096 45.356C18.2036 45.7504 19.3596 46.7069 20.4476 48.1259C21.5311 49.5471 22.0411 49.8689 24.0652 49.8689C25.0467 49.8689 26.5155 49.8123 27.8982 49.5947C28.6416 47.7065 29.9268 45.968 31.4976 45.1475C22.44 44.2159 18.1175 39.7097 18.1175 33.592C18.1175 30.9581 19.2395 28.4104 21.1458 26.2639C20.5202 24.1332 19.7337 19.788 21.386 18.1333C25.4615 18.1333 27.9254 20.7763 28.517 21.4903C30.5479 20.7944 32.7783 20.4 35.122 20.4C37.4703 20.4 39.7098 20.7944 41.7452 21.4948C42.33 20.7853 44.7962 18.1333 48.8807 18.1333C50.5399 19.7903 49.7443 24.1536 49.1119 26.2797C51.0068 28.4217 52.1221 30.9627 52.1221 33.592C52.1221 39.7052 47.8063 44.2091 38.7623 45.1452C41.2511 46.444 43.0667 50.0933 43.0667 52.8428V59.0399C43.0667 59.2756 43.0146 59.4456 42.9874 59.6473C53.5863 55.9323 61.2001 45.8683 61.2001 34C61.2001 18.9788 49.0212 6.79999 34 6.79999Z" fill="black"/>
</svg>
