<svg version="1.1" xmlns="http://www.w3.org/2000/svg" xmlns:xlink="http://www.w3.org/1999/xlink" viewBox="0 0 172 172"><g fill="none" fill-rule="nonzero" stroke="none" stroke-width="1" stroke-linecap="butt" stroke-linejoin="miter" stroke-miterlimit="10" stroke-dasharray="" stroke-dashoffset="0" font-family="none" font-weight="none" font-size="none" text-anchor="none" style="mix-blend-mode: normal"><path d="M0,172v-172h172v172z" fill="none"></path><g><path d="M152.57088,96.54876c0.516,-1.05952 0.97352,-2.17408 1.36912,-3.34196c4.52876,-13.3644 -2.32028,-29.37416 -16.74076,-33.239c-1.56004,-19.57876 -15.32004,-33.01024 -30.85852,-35.30128c-17.78652,-2.623 -34.08008,8.67568 -39.50152,26.6342c-6.53428,-2.31512 -12.90172,-2.03304 -18.9028,1.47404c-2.72276,1.25904 -5.21332,3.11664 -7.4476,5.56076c-3.28004,3.58792 -5.41284,8.11668 -6.28144,12.8914c-1.28656,0.20296 -2.55076,0.40592 -3.74272,0.83248c-6.9488,2.49228 -11.33308,7.62132 -12.53536,15.34756c-0.7482,4.81084 0.76196,9.60964 1.60476,11.54808c3.3282,7.6626 11.04584,12.0056 18.88732,10.85664c0.39044,-0.05676 0.95804,0.11868 1.29344,0.40076c0.41452,12.2464 6.36056,23.07724 15.28048,29.26408c14.31212,9.92784 32.72472,6.86968 44.3416,-6.74412c4.97768,5.0912 10.90136,7.56456 17.86048,6.66672c6.91956,-0.89268 12.29284,-4.71108 16.21272,-10.92028c1.81116,0.48676 3.52772,1.18852 5.30276,1.38288c6.95224,0.76024 12.59728,-2.0038 16.73904,-8.256c1.58584,-2.39252 3.08396,-5.49368 3.08396,-10.92888c0.00344,-5.60204 -2.22224,-10.70528 -5.96496,-14.12808z" fill="#c7ede6"></path><path d="M118.62324,84.80116c0,0 20.10852,0 20.23064,0c4.644,0 8.40736,-3.76508 8.40736,-8.40908c0,-4.0506 -2.86552,-7.43212 -6.68048,-8.22848c0.04472,-0.35432 0.07396,-0.7138 0.07396,-1.08016c0,-4.80912 -3.89924,-8.70836 -8.70836,-8.70836c-2.83972,0 -5.35436,1.36568 -6.94364,3.46924c-0.40592,-5.35436 -5.18924,-9.48408 -10.7844,-8.79952c-4.09188,0.50052 -7.47512,3.6636 -8.22848,7.71592c-0.2408,1.30032 -0.21672,2.56108 0.02408,3.74444c-1.09736,-1.18164 -2.65912,-1.92468 -4.39804,-1.92468c-3.182,0 -5.78092,2.47852 -5.9856,5.60892c-1.4448,-0.31992 -3.01688,-0.29928 -4.67324,0.32336c-3.1648,1.18852 -5.418,4.16756 -5.55044,7.54564c-0.18748,4.79708 3.6464,8.7462 8.4022,8.7462c0.3612,0 1.63056,0 1.92296,0h17.45972" fill="#fdfcef"></path><path d="M138.85388,85.66116h-20.23064c-0.47472,0 -0.86,-0.38528 -0.86,-0.86c0,-0.47472 0.38528,-0.86 0.86,-0.86h20.23064c4.16068,0 7.54736,-3.38668 7.54736,-7.54908c0,-3.55352 -2.52152,-6.66156 -5.99592,-7.3874c-0.4386,-0.09116 -0.73272,-0.50396 -0.67768,-0.94944c0.03956,-0.31992 0.06708,-0.64328 0.06708,-0.9718c0,-4.32752 -3.52084,-7.84836 -7.84664,-7.84836c-2.47508,0 -4.7558,1.14036 -6.25736,3.12696c-0.215,0.28724 -0.58308,0.41452 -0.9288,0.30616c-0.34228,-0.10148 -0.58824,-0.40248 -0.61404,-0.75852c-0.17888,-2.36844 -1.33988,-4.59412 -3.182,-6.10428c-1.86276,-1.52564 -4.21744,-2.20504 -6.64092,-1.90748c-3.72552,0.4558 -6.8026,3.34196 -7.48716,7.01932c-0.21328,1.14724 -0.2064,2.29792 0.02236,3.41592c0.07568,0.3784 -0.10664,0.76024 -0.45064,0.93568c-0.344,0.17544 -0.76196,0.1032 -1.0234,-0.17888c-0.989,-1.06468 -2.32716,-1.64948 -3.7668,-1.64948c-2.69868,0 -4.95016,2.11044 -5.12732,4.80568c-0.0172,0.25112 -0.14276,0.4816 -0.34228,0.63124c-0.19952,0.14964 -0.45752,0.2064 -0.70176,0.15136c-1.44824,-0.32164 -2.81736,-0.22532 -4.18476,0.28724c-2.87068,1.07672 -4.8762,3.79776 -4.99316,6.77336c-0.08084,2.07604 0.66392,4.042 2.10012,5.53496c1.4362,1.49468 3.36948,2.31684 5.44208,2.31684h19.38268c0.47472,0 0.86,0.38528 0.86,0.86c0,0.47472 -0.38528,0.86 -0.86,0.86h-19.38268c-2.54388,0 -4.91748,-1.00964 -6.68048,-2.84488c-1.763,-1.83352 -2.67976,-4.24668 -2.58,-6.794c0.14276,-3.65672 2.5972,-6.99868 6.106,-8.3162c1.37772,-0.516 2.80188,-0.688 4.24496,-0.51428c0.64844,-3.13556 3.43656,-5.47304 6.7166,-5.47304c1.17648,0 2.32888,0.3096 3.34368,0.8772c0,-0.6622 0.0602,-1.32784 0.18232,-1.99348c0.82044,-4.40664 4.50812,-7.86556 8.9698,-8.4108c2.88788,-0.35948 5.71212,0.45752 7.93952,2.28416c1.72688,1.41556 2.95152,3.35572 3.50536,5.49196c1.74064,-1.57552 3.98868,-2.45272 6.38808,-2.45272c5.27524,0 9.56664,4.29312 9.56664,9.56836c0,0.14276 -0.00344,0.28552 -0.01204,0.42828c3.87688,1.15584 6.61856,4.77644 6.61856,8.88208c0.00172,5.1084 -4.15552,9.26736 -9.26736,9.26736z" fill="#472b29"></path><path d="M113.75048,66.27848c-3.10976,-0.20468 -5.7878,1.9436 -5.97872,4.79708c-0.02408,0.35432 -0.0086,0.70348 0.043,1.04232c-0.60028,-0.67768 -1.4878,-1.13692 -2.50776,-1.204c-1.8662,-0.12212 -3.47784,1.1094 -3.71176,2.7864c-0.33884,-0.09288 -0.69316,-0.1548 -1.05952,-0.17888c-2.72104,-0.17888 -5.06368,1.70108 -5.23224,4.19852" fill="#fdfcef"></path><path d="M95.3052,78.1482c-0.01032,0 -0.02064,0 -0.02924,0c-0.23736,-0.01548 -0.41624,-0.22016 -0.40076,-0.45752c0.18232,-2.72964 2.7262,-4.79708 5.68976,-4.59928c0.2322,0.01548 0.46612,0.04644 0.70176,0.09116c0.46956,-1.66496 2.16548,-2.82768 4.06952,-2.69696c0.731,0.04816 1.41556,0.2752 2.00036,0.65704c0.00172,-0.03268 0.00344,-0.06536 0.00516,-0.09632c0.20812,-3.08224 3.09944,-5.40424 6.43624,-5.19612c0.23736,0.01548 0.41624,0.22016 0.40076,0.45752c-0.01548,0.23564 -0.21156,0.41968 -0.45752,0.40076c-2.86036,-0.1806 -5.34576,1.78364 -5.5212,4.39632c-0.02236,0.31304 -0.0086,0.63296 0.03956,0.95116c0.02924,0.18748 -0.07052,0.37324 -0.24252,0.45408c-0.17372,0.08256 -0.3784,0.03784 -0.50396,-0.10492c-0.55556,-0.6278 -1.3416,-1.00448 -2.21364,-1.06124c-1.61336,-0.11352 -3.05472,0.9546 -3.25768,2.4166c-0.0172,0.12212 -0.086,0.23048 -0.1892,0.29928c-0.10492,0.0688 -0.23048,0.08944 -0.35088,0.05676c-0.32336,-0.08772 -0.65188,-0.14448 -0.97524,-0.16512c-2.46992,-0.17028 -4.62164,1.54112 -4.77472,3.79776c-0.01376,0.22532 -0.20296,0.39904 -0.42656,0.39904z" fill="#472b29"></path><path d="M142.25948,69.14916c-2.92228,-1.37772 -6.30208,-0.40248 -7.54908,2.17924c-0.1548,0.31992 -0.27004,0.65188 -0.34572,0.98728" fill="#fdfcef"></path><path d="M134.36468,72.74396c-0.03096,0 -0.06364,-0.00344 -0.09632,-0.01032c-0.2322,-0.05332 -0.37668,-0.2838 -0.32336,-0.51428c0.08428,-0.37152 0.21156,-0.73444 0.37668,-1.07672c1.34676,-2.78984 4.98972,-3.85796 8.12012,-2.38048c0.215,0.10148 0.30788,0.35776 0.2064,0.57276c-0.09976,0.21672 -0.35776,0.30616 -0.57276,0.2064c-2.70556,-1.2728 -5.83596,-0.387 -6.97976,1.978c-0.1376,0.2838 -0.24252,0.5848 -0.31304,0.8944c-0.04472,0.19436 -0.22188,0.33024 -0.41796,0.33024z" fill="#472b29"></path><path d="M31.59468,82.85068h-17.25332c-0.47472,0 -0.86,-0.38528 -0.86,-0.86c0,-0.47472 0.38528,-0.86 0.86,-0.86h17.2516c0.47472,0 0.86,0.38528 0.86,0.86c0,0.47472 -0.38356,0.86 -0.85828,0.86zM36.54828,82.85068h-2.48712c-0.47472,0 -0.86,-0.38528 -0.86,-0.86c0,-0.47472 0.38528,-0.86 0.86,-0.86h2.48712c0.47472,0 0.86,0.38528 0.86,0.86c0,0.47472 -0.38356,0.86 -0.86,0.86zM43.52288,82.85068h-4.37912c-0.47472,0 -0.86,-0.38528 -0.86,-0.86c0,-0.47472 0.38528,-0.86 0.86,-0.86h4.37912c0.47472,0 0.86,0.38528 0.86,0.86c0,0.47472 -0.38528,0.86 -0.86,0.86zM43.52288,86.05848h-16.53952c-0.47472,0 -0.86,-0.38528 -0.86,-0.86c0,-0.47472 0.38528,-0.86 0.86,-0.86h16.53952c0.47472,0 0.86,0.38528 0.86,0.86c0,0.47472 -0.38528,0.86 -0.86,0.86zM24.00432,86.05848h-0.9976c-0.47472,0 -0.86,-0.38528 -0.86,-0.86c0,-0.47472 0.38528,-0.86 0.86,-0.86h0.9976c0.47472,0 0.86,0.38528 0.86,0.86c0,0.47472 -0.38356,0.86 -0.86,0.86zM19.91588,86.05848h-2.50432c-0.47472,0 -0.86,-0.38528 -0.86,-0.86c0,-0.47472 0.38528,-0.86 0.86,-0.86h2.50432c0.47472,0 0.86,0.38528 0.86,0.86c0,0.47472 -0.38356,0.86 -0.86,0.86zM35.6298,79.64288h-8.64644c-0.47472,0 -0.86,-0.38528 -0.86,-0.86c0,-0.47472 0.38528,-0.86 0.86,-0.86h8.64644c0.47472,0 0.86,0.38528 0.86,0.86c0,0.47472 -0.38356,0.86 -0.86,0.86zM35.6298,76.4368h-2.16204c-0.47472,0 -0.86,-0.38528 -0.86,-0.86c0,-0.47472 0.38528,-0.86 0.86,-0.86h2.16204c0.47472,0 0.86,0.38528 0.86,0.86c0,0.47472 -0.38356,0.86 -0.86,0.86zM30.00884,89.26628h-3.02548c-0.47472,0 -0.86,-0.38528 -0.86,-0.86c0,-0.47472 0.38528,-0.86 0.86,-0.86h3.02548c0.47472,0 0.86,0.38528 0.86,0.86c0,0.47472 -0.38528,0.86 -0.86,0.86z" fill="#ffffff"></path><g fill="#ffffff"><path d="M123.05912,37.65424h-17.2516c-0.47472,0 -0.86,-0.38528 -0.86,-0.86c0,-0.47472 0.38528,-0.86 0.86,-0.86h17.2516c0.47472,0 0.86,0.38528 0.86,0.86c0,0.47472 -0.38356,0.86 -0.86,0.86zM128.01616,37.65424h-2.48712c-0.47472,0 -0.86,-0.38528 -0.86,-0.86c0,-0.47472 0.38528,-0.86 0.86,-0.86h2.48712c0.47472,0 0.86,0.38528 0.86,0.86c0,0.47472 -0.38528,0.86 -0.86,0.86zM134.98904,37.65424h-4.37912c-0.47472,0 -0.86,-0.38528 -0.86,-0.86c0,-0.47472 0.38528,-0.86 0.86,-0.86h4.37912c0.47472,0 0.86,0.38528 0.86,0.86c0,0.47472 -0.38356,0.86 -0.86,0.86zM131.50432,31.23864h-16.53952c-0.47472,0 -0.86,-0.38528 -0.86,-0.86c0,-0.47472 0.38528,-0.86 0.86,-0.86h16.54124c0.47472,0 0.86,0.38528 0.86,0.86c0,0.47472 -0.38528,0.86 -0.86172,0.86zM111.98576,31.23864h-0.9976c-0.47472,0 -0.86,-0.38528 -0.86,-0.86c0,-0.47472 0.38528,-0.86 0.86,-0.86h0.9976c0.47472,0 0.86,0.38528 0.86,0.86c0,0.47472 -0.38356,0.86 -0.86,0.86zM107.89904,31.23864h-2.50604c-0.47472,0 -0.86,-0.38528 -0.86,-0.86c0,-0.47472 0.38528,-0.86 0.86,-0.86h2.50604c0.47472,0 0.86,0.38528 0.86,0.86c0,0.47472 -0.38528,0.86 -0.86,0.86zM127.09596,34.44816h-8.64816c-0.47472,0 -0.86,-0.38528 -0.86,-0.86c0,-0.47472 0.38528,-0.86 0.86,-0.86h8.64816c0.47472,0 0.86,0.38528 0.86,0.86c0,0.47472 -0.38356,0.86 -0.86,0.86z"></path><path d="M127.09596,31.23864h-2.16204c-0.47472,0 -0.86,-0.38528 -0.86,-0.86c0,-0.47472 0.38528,-0.86 0.86,-0.86h2.16204c0.47472,0 0.86,0.38528 0.86,0.86c0,0.47472 -0.38356,0.86 -0.86,0.86zM115.94692,34.44816h-3.02548c-0.47472,0 -0.86,-0.38528 -0.86,-0.86c0,-0.47472 0.38528,-0.86 0.86,-0.86h3.02548c0.47472,0 0.86,0.38528 0.86,0.86c0,0.47472 -0.38528,0.86 -0.86,0.86z"></path></g><g><path d="M113.62148,56.48996l-6.6048,74.80624h-32.58712l-7.92576,-74.80624" fill="#d68e54"></path><path d="M108.1192,132.5002h-34.77324l-8.041,-75.88468c-0.07052,-0.66048 0.40936,-1.25388 1.07156,-1.3244c0.64844,-0.06708 1.25388,0.40936 1.3244,1.07156l7.81224,73.72952h30.401l6.50848,-73.70888c0.05848,-0.66392 0.65016,-1.14896 1.30548,-1.09392c0.6622,0.05848 1.1524,0.64328 1.09392,1.30548z" fill="#472b29"></path><path d="M75.17604,68.54372h-6.95396l4.46684,39.24352h35.99788l3.39356,-39.24352h-25.456" fill="#88ae45"></path><path d="M108.6868,108.38924h-35.99788c-0.30616,0 -0.56416,-0.23048 -0.59856,-0.53492l-4.46684,-39.24352c-0.01892,-0.17028 0.0344,-0.34056 0.14792,-0.46784c0.11352,-0.129 0.27864,-0.20124 0.44892,-0.20124h6.95396c0.33196,0 0.602,0.27004 0.602,0.602c0,0.33196 -0.27004,0.602 -0.602,0.602h-6.27972l4.33096,38.03952h34.90912l3.29036,-38.03952h-24.80068c-0.33196,0 -0.602,-0.27004 -0.602,-0.602c0,-0.33196 0.27004,-0.602 0.602,-0.602h25.456c0.16856,0 0.32852,0.07052 0.44376,0.19436c0.11524,0.12384 0.17028,0.29068 0.15652,0.45924l-3.39356,39.24352c-0.02752,0.31132 -0.28896,0.5504 -0.60028,0.5504z" fill="#472b29"></path><path d="M68.22208,51.00144l2.46476,-5.13592h38.7516l2.64192,5.504h-21.68748" fill="#cdcbbd"></path><path d="M112.08036,52.22952h-21.68748c-0.47472,0 -0.86,-0.38528 -0.86,-0.86c0,-0.47472 0.38528,-0.86 0.86,-0.86h20.32008l-1.81632,-3.784h-37.66972l-2.23084,4.64744c-0.2064,0.42828 -0.71724,0.60888 -1.14724,0.40248c-0.42828,-0.2064 -0.60888,-0.71896 -0.40248,-1.14724l2.46648,-5.13592c0.14276,-0.29756 0.44376,-0.48848 0.77572,-0.48848h38.7516c0.33024,0 0.63296,0.1892 0.77572,0.48848l2.64192,5.504c0.12728,0.2666 0.11008,0.57964 -0.04644,0.82904c-0.16168,0.25284 -0.43516,0.4042 -0.731,0.4042z" fill="#472b29"></path><path d="M114.0618,56.21476h-47.99832c-1.33128,0 -2.42176,-1.09048 -2.42176,-2.42176v0c0,-1.33128 1.09048,-2.42176 2.42176,-2.42176h48.00004c1.333,0 2.42176,1.09048 2.42176,2.42176v0c-0.00172,1.33128 -1.09048,2.42176 -2.42348,2.42176z" fill="#fdfcef"></path><path d="M114.0618,57.07476h-47.99832c-1.80944,0 -3.28176,-1.47232 -3.28176,-3.28176c0,-1.80944 1.47232,-3.28176 3.28176,-3.28176h48.00004c1.80944,0 3.28176,1.47232 3.28176,3.28176c0,1.80944 -1.47232,3.28176 -3.28348,3.28176zM66.06348,52.22952c-0.86172,0 -1.56176,0.70004 -1.56176,1.56176c0,0.86172 0.70004,1.56176 1.56176,1.56176h48.00004c0.86172,0 1.56176,-0.70004 1.56176,-1.56176c0,-0.86172 -0.70004,-1.56176 -1.56176,-1.56176z" fill="#472b29"></path><path d="M80.26552,68.98404c0,0 -6.82668,6.71832 -6.82668,8.471v12.23092c0,1.75268 1.43448,3.18716 3.18716,3.18716h7.60756c1.75268,0 3.18716,-1.43448 3.18716,-3.18716v-12.23092c0,-1.75096 -7.1552,-8.471 -7.1552,-8.471zM80.42892,77.35184c-0.82044,0 -1.48608,-0.66564 -1.48608,-1.48608c0,-0.82044 0.66564,-1.48608 1.48608,-1.48608c0.82044,0 1.48608,0.66564 1.48608,1.48608c0.00172,0.82044 -0.66392,1.48608 -1.48608,1.48608z" fill="#e1e0d8"></path><path d="M84.23356,93.47684h-7.60756c-2.08808,0 -3.78916,-1.69936 -3.78916,-3.78916v-12.23092c0,-1.86104 5.36296,-7.28248 7.00556,-8.901c0.23048,-0.22532 0.60028,-0.22876 0.8342,-0.01032c1.72172,1.61852 7.34612,7.0434 7.34612,8.91132v12.23092c0,2.0898 -1.69936,3.78916 -3.78916,3.78916zM80.27584,69.8234c-3.07364,3.07192 -6.235,6.74584 -6.235,7.63336v12.23092c0,1.42588 1.15928,2.58516 2.58344,2.58516h7.60756c1.42588,0 2.58516,-1.15928 2.58516,-2.58516v-12.23092c0.00172,-0.88408 -3.31788,-4.56144 -6.54116,-7.63336zM80.43064,77.95384c-1.15068,0 -2.08808,-0.9374 -2.08808,-2.08808c0,-1.15068 0.9374,-2.08808 2.08808,-2.08808c1.15068,0 2.08808,0.93568 2.08808,2.08808c0,1.1524 -0.9374,2.08808 -2.08808,2.08808zM80.43064,74.98168c-0.48848,0 -0.88408,0.3956 -0.88408,0.88408c0,0.48848 0.3956,0.88408 0.88408,0.88408c0.48676,0 0.88408,-0.3956 0.88408,-0.88408c-0.00172,-0.48676 -0.39732,-0.88408 -0.88408,-0.88408z" fill="#472b29"></path><path d="M80.2638,69.14572c-0.33196,0 -0.602,-0.27004 -0.602,-0.602v-12.11052c0,-0.33196 0.27004,-0.602 0.602,-0.602c0.33196,0 0.602,0.27004 0.602,0.602v12.11052c0,0.33368 -0.26832,0.602 -0.602,0.602zM103.7762,105.25196c-0.01204,0 -0.0258,0 -0.03784,-0.00172c-0.33196,-0.02064 -0.5848,-0.30616 -0.56416,-0.63812l1.95048,-31.75636c0.02064,-0.33196 0.32336,-0.57448 0.63812,-0.56416c0.33196,0.02064 0.5848,0.30616 0.56416,0.63812l-1.95048,31.75636c-0.02064,0.31992 -0.28552,0.56588 -0.60028,0.56588zM97.37436,105.25196c-0.00516,0 -0.01204,0 -0.01892,0c-0.33196,-0.01032 -0.5934,-0.28724 -0.58308,-0.6192l0.97868,-31.86816c0.0086,-0.33196 0.27864,-0.60888 0.6192,-0.58308c0.33196,0.01032 0.5934,0.28724 0.58308,0.6192l-0.97868,31.86816c-0.0086,0.32508 -0.27692,0.58308 -0.60028,0.58308zM90.97596,105.25196c-0.33196,0 -0.602,-0.27004 -0.602,-0.602v-31.90428c0,-0.33196 0.27004,-0.602 0.602,-0.602c0.33196,0 0.602,0.27004 0.602,0.602v31.90256c0.00172,0.33368 -0.26832,0.60372 -0.602,0.60372zM77.34152,105.25196c-0.32336,0 -0.59168,-0.258 -0.602,-0.58308c-0.07052,-2.2532 -0.10836,-3.5518 -0.086,-4.30344l-0.04472,0.00172l-0.01376,-0.41968l0.04472,-0.00172c-0.0688,-0.7482 -0.10836,-2.0468 -0.17716,-4.3c-0.01032,-0.33196 0.25112,-0.60888 0.58308,-0.6192c0.33368,-0.04816 0.6106,0.25112 0.6192,0.58308l0.14104,4.55112c0,0.01032 0,0.02236 0.00172,0.0344c0,0.00172 0,0.00344 0,0.00516l0.13588,4.43416c0.01032,0.33196 -0.25112,0.60888 -0.58308,0.6192c-0.00688,-0.00172 -0.01376,-0.00172 -0.01892,-0.00172zM84.2284,105.25196c-0.32336,0 -0.59168,-0.258 -0.602,-0.58308l-0.13932,-4.515c0,-0.01032 0,-0.02064 0,-0.03268l-0.00516,-0.17372h0.0086c0.00344,-0.04988 0.01032,-0.10492 0.02236,-0.15824c-0.0602,-0.76884 -0.09976,-2.04164 -0.1634,-4.14348c-0.01032,-0.33196 0.25112,-0.60888 0.58308,-0.6192c0.33196,-0.04816 0.6106,0.25112 0.6192,0.58308l0.13932,4.50984c0,0.01032 0,0.02236 0,0.0344l0.00516,0.17716h-0.01032c-0.00344,0.04988 -0.01032,0.1032 -0.02236,0.15652c0.06192,0.76884 0.09976,2.04164 0.16512,4.14692c0.01032,0.33196 -0.25112,0.60888 -0.58308,0.6192c-0.00516,-0.00172 -0.01204,-0.00172 -0.0172,-0.00172z" fill="#472b29"></path></g><g><path d="M74.83032,127.33676c3.23876,0 6.04924,0 6.0888,0c3.6292,0 6.57212,-2.87928 6.57212,-6.43108c0,-3.09944 -2.23944,-5.6846 -5.2202,-6.2952c0.0344,-0.27176 0.05848,-0.54524 0.05848,-0.8256c0,-3.67908 -3.04784,-6.66156 -6.80604,-6.66156c-2.2188,0 -4.18476,1.04404 -5.4266,2.65396c-0.3182,-4.09532 -4.05576,-7.25496 -8.428,-6.73036c-3.19748,0.38356 -5.84284,2.80188 -6.43108,5.90132c-0.1892,0.99416 -0.16856,1.95908 0.01892,2.8638c-0.85656,-0.903 -2.07776,-1.47232 -3.43656,-1.47232c-2.48712,0 -4.51844,1.89544 -4.6784,4.28968c-1.13004,-0.24424 -2.35812,-0.22876 -3.65156,0.24596c-2.47336,0.90816 -4.23464,3.18716 -4.33784,5.77232c-0.1462,3.66876 2.85004,6.68908 6.56696,6.68908c0.28208,0 1.27452,0 1.50328,0h13.64648M63.68816,127.33676h0.6192" fill="#fdfcef"></path><path d="M80.91912,128.19676h-6.09052c-0.47472,0 -0.86,-0.38528 -0.86,-0.86c0,-0.47472 0.38528,-0.86 0.86,-0.86h6.09052c3.14932,0 5.7104,-2.49916 5.7104,-5.57108c0,-2.62128 -1.90576,-4.91404 -4.53392,-5.4524c-0.44032,-0.08944 -0.73788,-0.50396 -0.68112,-0.95116c0.03096,-0.23564 0.0516,-0.47472 0.0516,-0.71724c0,-3.1992 -2.66772,-5.80156 -5.94604,-5.80156c-1.87824,0 -3.60856,0.84452 -4.74548,2.31856c-0.21844,0.28208 -0.58824,0.40076 -0.92708,0.29756c-0.34056,-0.10148 -0.58308,-0.40248 -0.6106,-0.7568c-0.13588,-1.75268 -0.9718,-3.34368 -2.3564,-4.47888c-1.42416,-1.1696 -3.23876,-1.68732 -5.11356,-1.46544c-2.83112,0.33884 -5.17032,2.48024 -5.68804,5.20816c-0.16168,0.84968 -0.15652,1.69936 0.0172,2.53012c0.0774,0.37668 -0.1032,0.75852 -0.44376,0.93568c-0.33884,0.17716 -0.7568,0.11008 -1.0234,-0.17028c-0.73616,-0.77744 -1.73548,-1.204 -2.81392,-1.204c-2.01068,0 -3.6894,1.53252 -3.82012,3.48644c-0.0172,0.2494 -0.14104,0.47988 -0.34056,0.62952c-0.19952,0.14964 -0.45236,0.2064 -0.70004,0.15308c-1.09736,-0.23908 -2.13624,-0.16684 -3.1734,0.21328c-2.17064,0.79808 -3.68768,2.80704 -3.7754,4.99832c-0.0602,1.505 0.48676,2.93776 1.5394,4.0334c1.0922,1.13692 2.57312,1.76128 4.16756,1.76128h15.14976c0.47472,0 0.86,0.38528 0.86,0.86c0,0.47472 -0.38528,0.86 -0.86,0.86h-15.14976c-2.0382,0 -4.00932,-0.8342 -5.4094,-2.29104c-1.37944,-1.4362 -2.09668,-3.31616 -2.01756,-5.29416c0.11524,-2.87928 2.08464,-5.50916 4.902,-6.5446c1.0492,-0.38528 2.13624,-0.52632 3.2336,-0.4214c0.59168,-2.3994 2.80188,-4.16928 5.3922,-4.16928c0.84796,0 1.68044,0.19436 2.43208,0.55556c0.01548,-0.41624 0.06364,-0.83248 0.14276,-1.24872c0.65532,-3.45548 3.60512,-6.16792 7.1724,-6.59448c2.3392,-0.27692 4.6182,0.37496 6.40872,1.84384c1.28656,1.05436 2.19816,2.42348 2.65912,3.95944c1.36052,-1.11456 3.0702,-1.73204 4.88824,-1.73204c4.22776,0 7.66604,3.37464 7.66604,7.52156c0,0.05848 0,0.11696 -0.00172,0.17544c3.03408,0.9546 5.16516,3.76336 5.16516,6.94536c0.00516,4.02652 -3.3282,7.29796 -7.42696,7.29796zM64.30736,128.19676h-0.6192c-0.47472,0 -0.86,-0.38528 -0.86,-0.86c0,-0.47472 0.38528,-0.86 0.86,-0.86h0.6192c0.47472,0 0.86,0.38528 0.86,0.86c0,0.47472 -0.38528,0.86 -0.86,0.86z" fill="#472b29"></path><path d="M77.98136,118.2156c-0.03096,0 -0.06364,-0.00344 -0.0946,-0.01032c-0.2322,-0.0516 -0.37668,-0.28208 -0.32336,-0.51428c0.06536,-0.28724 0.1634,-0.56416 0.29068,-0.82388c1.0406,-2.10528 3.90784,-2.88272 6.40184,-1.73032c0.215,0.09976 0.3096,0.35604 0.20984,0.57104c-0.10148,0.215 -0.35432,0.3096 -0.57104,0.20984c-2.07432,-0.95976 -4.43416,-0.35948 -5.26836,1.33128c-0.09976,0.19952 -0.17372,0.4128 -0.2236,0.63296c-0.04644,0.1978 -0.2236,0.33368 -0.4214,0.33368z" fill="#472b29"></path><g fill="#472b29"><path d="M69.1096,128.19676h-1.90404c-0.47472,0 -0.86,-0.38528 -0.86,-0.86c0,-0.47472 0.38528,-0.86 0.86,-0.86h1.90404c0.47472,0 0.86,0.38528 0.86,0.86c0,0.47472 -0.38528,0.86 -0.86,0.86z"></path></g></g></g></g></svg>