<?xml version="1.0" encoding="UTF-8"?>
<svg width="752pt" height="752pt" version="1.1" viewBox="0 0 752 752" xmlns="http://www.w3.org/2000/svg">
 <g>
  <path d="m332.26 509.01c-18.785-13.66-36.43-33.73-52.824-60.32-43.152-69.98-35.477-173.57 55.887-198.46 77.082-21.004 126.62 12.816 153.39 106.86 2.2383 7.8594 10.426 12.422 18.285 10.184 7.8633-2.2383 12.422-10.426 10.184-18.285-30.926-108.66-95.727-152.9-189.64-127.31-63.965 17.43-96.621 61.469-101.02 120.72-3.1797 42.926 9.7852 92.758 27.715 121.84 18.301 29.684 38.473 52.625 60.617 68.727 6.6094 4.8047 15.867 3.3398 20.672-3.2695 4.8047-6.6094 3.3438-15.867-3.2695-20.672z"/>
  <path d="m437.98 508.85c-51.848-20.77-87.027-55.918-106.32-106.1-21.473-55.848-10.531-94.02 31.488-98.242 31.461-3.1602 48.363 11.133 54.754 47.707 6.9141 25.008 16.766 42.547 30.375 53.746 12.473 10.262 27.477 18.148 44.906 23.703 7.7891 2.4805 16.113-1.8203 18.594-9.6094 2.4805-7.7852-1.8203-16.113-9.6094-18.594-13.973-4.4492-25.633-10.582-35.082-18.359-8.3164-6.8359-15.262-19.207-20.355-37.418-8.6211-49.785-38.926-75.414-86.539-70.625-66.379 6.6719-83.629 66.855-56.156 138.31 22.277 57.945 63.523 99.152 122.94 122.96 7.5859 3.0391 16.203-0.64844 19.242-8.2344 3.0391-7.5859-0.64844-16.203-8.2344-19.242z"/>
  <path d="m350.87 356.49c23.188 81.223 69.922 123.95 138.51 124.44 8.1719 0.0625 14.844-6.5156 14.906-14.691 0.058594-8.1719-6.5195-14.844-14.691-14.906-54.234-0.39453-90.43-33.477-110.27-102.97-2.2461-7.8594-10.434-12.414-18.293-10.168-7.8594 2.2422-12.414 10.434-10.168 18.293z"/>
 </g>
</svg>
