<?xml version="1.0" encoding="UTF-8"?>
<svg width="752pt" height="752pt" version="1.1" viewBox="0 0 752 752" xmlns="http://www.w3.org/2000/svg">
 <path d="m476.64 376c-0.023438-26.68-10.637-52.266-29.504-71.133-18.867-18.867-44.449-29.477-71.133-29.5-6.6133-0.015626-13.215 0.63672-19.699 1.9414-32.812 6.5938-60.191 29.078-73.047 59.977-12.855 30.898-9.5 66.168 8.9492 94.09 18.449 27.926 49.578 44.84 83.047 45.133 33.465 0.29297 64.883-16.082 83.816-43.676 11.504-16.715 17.633-36.539 17.57-56.832zm-9.4727 0c-0.03125 17.906-5.3906 35.398-15.391 50.25l-3.0312 1.3242-3.125 1.3242c-1.2305 0.47266-2.5117 0.85156-3.7422 1.2773l-3.125 1.043c-1.2773 0.37891-2.6055 0.66406-3.9297 0.94531l-2.9375 0.66797c-1.375 0.28516-2.7461 0.42578-4.1211 0.61719l-3.0312 0.42578c-1.4219 0-2.8906 0-4.3086 0.28516h-2.9375-4.7344-2.6992c-1.6562 0-3.3633-0.33203-5.0195-0.51953l-2.2266-0.23828c-2.3984-0.34766-4.7812-0.80469-7.1523-1.375h0.003906c-21.758-5.3203-40.52-19.039-52.191-38.152-11.668-19.117-15.297-42.078-10.086-63.859 0.50391-2.1484 1.1055-4.2773 1.8008-6.3945 0-0.71094 0.51953-1.375 0.75781-2.0352 0.23828-0.66406 0.94531-2.7461 1.5156-4.1211 0.56641-1.375 0.71094-1.5625 1.0898-2.3672 0.37891-0.80469 1.043-2.4141 1.6562-3.5508 0.61719-1.1367 0.89844-1.6094 1.3242-2.4609 0.42578-0.85156 1.1836-2.1797 1.8008-3.2188 0.61719-1.043 1.0898-1.6562 1.6094-2.4609 0.51953-0.80469 1.2773-1.9883 1.9414-2.9375 0.66406-0.94531 1.2305-1.6094 1.8477-2.4141 0.61719-0.80469 1.375-1.8477 2.1328-2.7461 0.75781-0.89844 1.375-1.5156 2.0352-2.2734 0.66406-0.75781 1.5156-1.7031 2.3203-2.5586l2.2266-2.1328 2.1328-1.9883-0.003906-0.003907c5.4688-1.0156 11.016-1.5234 16.578-1.5156 24.145 0.0625 47.281 9.6914 64.344 26.781 17.059 17.086 26.652 40.238 26.676 64.383z"/>
</svg>
