<svg xmlns="http://www.w3.org/2000/svg" width="1200" height="900" fill="none" xmlns:v="https://vecta.io/nano"><g fill="#000"><path fill-rule="evenodd" d="M492.648 56.722a2.5 2.5 0 0 0-4.296 2.557l8.852 14.875c-12.427 6.5-36.626 26.483-24.704 50.846 11.399 23.294 50.31 8.76 56.835 3.147l7.517 12.632a2.5 2.5 0 0 0 4.296-2.557l-48.5-81.501z"/><path d="M525 265.5c52.105-28.085 105.377-10.821 130.404 3.93 2.759 1.627 4.139 2.44 5.363 2.105s1.972-1.697 3.469-4.419c1.108-2.013 1.661-3.02 1.417-4.124s-1.082-1.716-2.755-2.942c-20.828-15.251-83.977-37.764-152.398-18.55-44.316 12.445-80.082-.969-100.057-15.366-5.785-4.169-8.677-6.254-10.31-5.418s-1.633 4.165-1.633 10.822v34.914c0 1.73 0 2.595.416 3.3s1.174 1.124 2.69 1.963c28.749 15.897 55.337 30.468 123.394-6.215z"/><path d="M676 80.5C626.8 92.1 631.833 195 640.5 245 635 196.667 634.4 96.9 676 84.5c19.45-3.321 45.201 13.612 69.566 58.912 1.255 2.333 1.882 3.499 2.309 3.301s-.042-1.399-.981-3.803c-9.63-24.658-39.27-68.2-70.894-62.41zm-23 60c-1.2-9.2 7.833-12.167 12.5-12.5.833 0 2.5.5 2.5 2.5s-1 2.5-1.5 2.5c-2.833.167-8.6 1.9-9 7.5-.367 5.14 4.854 7.584 8.163 8.338.48.109.837.524.837 1.016v.759c0 .682-.679 1.197-1.351 1.082-3.746-.638-10.833-1.107-12.149-11.195z" stroke="#000"/><path d="M695 124a5 5 0 1 0 0-10 5 5 0 1 0 0 10zm1.5-4a.5.5 0 1 0 0-1 .5.5 0 1 0 0 1zm-75.31 144.971L321.456 715.895c-.313.419-.178.853.219 1.194 12.975 11.138 41.974 25.535 86.869 31.863L373 814.5l57.5 25.5-77 1.5c-5.6 0-11.333 2.333-13.5 3.5l537-9.5H691.5l67.5-7c2.4-2 1-4.5 0-5.5l-77.5-12-21.171-83.7c35.157-1.742 71.492-.451 97.22 7.728.692.22 1.373-.302 1.3-1.023-10.029-98.694-36.701-303.856-65.065-353.669-.369-.649-1.251-.584-1.644.051l-47.473 76.537a1 1 0 0 1-1.559.178L573.5 387l68.607 64.165a1 1 0 0 0 1.535-.206l84.933-137.77a1 1 0 0 0-.161-1.248l-42.005-40.074a1 1 0 0 0-1.55.214l-41.691 70.293a1 1 0 0 1-1.579.185L612.5 312.5l27.622 23.261a1 1 0 0 0 1.49-.232l19.55-30.993a.98.98 0 0 0 .003-1.06c-8.223-12.798-26.844-37.411-39.093-38.922-.357-.044-.685.117-.882.417zm28.892 462.923C618.01 730.011 587.912 734.383 569 738c-35.92 8.547-68.071 12.725-96.439 13.853C486.291 829.989 583.015 826.261 593 734h4c-.667 12.333-6.4 39.6-22 54l20.5 23 14-23c.833-.833 3-2 5 0s8.5 6.833 11.5 9c1 1 2.2 3.6-1 6s-20 10.333-28 14c-.167.333-1.1.6-3.5-1L572 791.5c-5.167 6.167-20.9 18.7-42.5 19.5l1 23 20.5-13.5c2.5-1.5 5.1-1.1 5.5 2.5v14l116-1.5-22.418-107.606zm-178.513 23.998c-18.75.701-35.836.069-51.255-1.511l-.814 1.119-24.5 48 48 39.5 83-2-2-26c-15.96-1.496-43.164-7.072-52.431-59.108z" fill-rule="evenodd"/><path d="M321.456 715.895l-.4-.299h0l.4.299zM621.19 264.971l-.418-.275h0l.418.275zM321.675 717.089l-.326.38h0l.326-.38zm86.869 31.863l.439.238.344-.633-.713-.1-.07.495zM373 814.5l-.44-.238-.258.476.495.219.203-.457zm57.5 25.5l.011.5.192-.957-.203.457zm-90.5 5l-.237-.44.246.94-.009-.5zm537-9.5l.009.5-.009-1v.5zm-185.5 0l-.052-.497.052.997v-.5zm67.5-7l.052.497.151-.015.117-.098-.32-.384zm0-5.5l.354-.354-.116-.115-.161-.025L759 823zm-77.5-12l-.485.123.081.32.327.051.077-.494zm-21.171-83.7l-.025-.499-.609.03.149.592.485-.123zm97.22 7.728l.152-.477h0l-.152.477zm1.3-1.023l.497-.051h0l-.497.051zm-65.065-353.669l-.434.248h0l.434-.248zm-1.644.051l-.425-.263h0l.425.263zm-47.473 76.537l-.425-.263h0l.425.263zm-1.559.178l.355-.353h0l-.355.353zM573.5 387l.342-.365-.697.717.355-.352zm68.607 64.165l-.341.365h0l.341-.365zm1.535-.206l-.426-.262h0l.426.262zm84.933-137.77l.426.263h0l-.426-.263zm-.161-1.248l-.345.362h0l.345-.362zm-42.005-40.074l.345-.361h0l-.345.361zm-1.55.214l-.43-.255h0l.43.255zm-41.691 70.293l-.43-.255h0l.43.255zm-1.579.185l.36-.348h0l-.36.348zM612.5 312.5l.322-.382-.681.73.359-.348zm27.622 23.261l-.322.382h0l.322-.382zm1.49-.232l-.423-.266h0l.423.266zm19.55-30.993l-.423-.267h0l.423.267zm.003-1.06l-.421.27h0l.421-.27zm-39.093-38.922l-.061.496h0l.061-.496zm28.01 463.34l.489-.102-.088-.426-.434.029.033.499zM569 738l-.094-.491-.011.002-.011.003.116.486zm-96.439 13.853l-.019-.499-.572.022.099.564.492-.087zM593 734v-.5h-.449l-.048.446.497.054zm4 0l.499.027.029-.527H597v.5zm-22 54l-.339-.367-.361.333.327.367L575 788zm20.5 23l-.373.333.449.504.351-.577-.427-.26zm14-23l-.354-.354-.042.043-.031.051.427.26zm16.5 9l.354-.354-.029-.028-.032-.023L626 797zm-29 20l-.208-.455-.16.074-.079.157.447.224zm-3.5-1l-.376.33.044.049.055.037.277-.416zM572 791.5l.376-.33-.385-.438-.374.447.383.321zM529.5 811l-.018-.5-.503.019.021.503.5-.022zm1 23l-.5.022.039.88.736-.484-.275-.418zm20.5-13.5l-.257-.429-.009.006-.009.005.275.418zm5.5 2.5h.5v-.028l-.003-.027-.497.055zm0 14h-.5v.506l.506-.006-.006-.5zm116-1.5l.006.5.607-.008-.124-.594-.489.102zm-200.931-83.608l.493-.088-.077-.428-.434.016.018.5zm-51.255-1.511l.051-.497-.286-.03-.17.233.405.294zm-.814 1.119l-.404-.294-.023.032-.018.035.445.227zm-24.5 48l-.445-.227-.183.358.31.255.318-.386zm48 39.5l-.318.386.144.118.186-.004-.012-.5zm83-2l.012.5.527-.013-.04-.525L526 837zm-2-26l.499-.038-.033-.42-.419-.04L524 811zm-202.143-94.806c20.512-27.493 207.71-311.068 299.751-450.948l-.836-.55-299.716 450.9.801.598zm.144.516c-.146-.125-.199-.23-.213-.295-.01-.047-.011-.115.069-.221l-.801-.598c-.234.312-.323.671-.245 1.031.074.343.287.625.538.842l.652-.759zm86.613 31.747c-44.834-6.319-73.732-20.69-86.613-31.747l-.652.759c13.07 11.219 42.169 25.642 87.125 31.978l.14-.99zm-.51.256l-35.544 65.549.88.476 35.543-65.548-.879-.477zm-35.307 66.244l57.5 25.5.406-.914-57.5-25.5-.406.914zm57.692 24.543L353.5 841v1c5.607 0 53.683-1 77.011-1.5l-.022-1zM353.5 841c-5.712 0-11.529 2.371-13.737 3.56l.474.88c2.125-1.144 7.775-3.44 13.263-3.44v-1zm-13.491 4.5l537-9.5-.018-1-537 9.5.018 1zM877 835H691.5v1H877v-1zm-185.448.997l67.5-7-.104-.994-67.5 7 .104.994zm67.768-7.113c1.342-1.118 1.652-2.424 1.448-3.595-.198-1.13-.865-2.093-1.414-2.643l-.708.708c.451.45.984 1.237 1.136 2.107.146.829-.044 1.773-1.102 2.655l.64.768zm-.243-6.378l-77.5-12-.154.988 77.5 12 .154-.988zm-77.092-11.629l-21.171-83.699-.97.245 21.171 83.7.97-.246zm75.716-76.326c-25.819-8.207-62.229-9.493-97.397-7.75l.05.999c35.146-1.742 71.405-.446 97.044 7.704l.303-.953zm.65-.496c.035.34-.279.614-.65.496l-.303.953c1.011.322 2.06-.446 1.948-1.55l-.995.101zM693.35 380.584c7.052 12.385 14.024 34.483 20.67 62.266 6.642 27.764 12.946 61.15 18.679 96.071 11.465 69.841 20.639 145.795 25.652 195.134l.995-.101c-5.015-49.354-14.191-125.328-25.66-195.195-5.735-34.932-12.044-68.345-18.693-96.142-6.646-27.78-13.644-50.006-20.774-62.528l-.869.495zm-.785.067c.111-.18.281-.264.429-.271.138-.006.269.051.356.204l.869-.495c-.283-.496-.778-.731-1.271-.708-.484.022-.951.288-1.233.743l.85.527zm-47.473 76.537l47.473-76.537-.85-.527-47.473 76.537.85.527zm-2.339.266a1.5 1.5 0 0 0 2.339-.266l-.85-.527a.5.5 0 0 1-.779.088l-.71.705zm-69.608-70.102l69.608 70.102.71-.705-69.608-70.101-.71.704zm69.304 63.448l-68.607-64.165-.684.73 68.608 64.165.683-.73zm.767-.103a.5.5 0 0 1-.767.103l-.683.73a1.5 1.5 0 0 0 2.301-.308l-.851-.525zm84.933-137.77l-84.933 137.77.851.525 84.934-137.77-.852-.525zm-.08-.624a.5.5 0 0 1 .08.624l.852.525a1.5 1.5 0 0 0-.242-1.873l-.69.724zm-42.005-40.074l42.005 40.074.69-.724-42.005-40.073-.69.723zm-.775.107a.5.5 0 0 1 .775-.107l.69-.723a1.5 1.5 0 0 0-2.325.32l.86.51zm-41.691 70.293l41.691-70.293-.86-.51-41.691 70.293.86.51zm-2.368.278a1.5 1.5 0 0 0 2.368-.278l-.86-.51a.5.5 0 0 1-.789.092l-.719.696zm-29.089-30.059l29.089 30.059.719-.696-29.09-30.059-.718.696zm28.303 22.53l-27.622-23.26-.644.764 27.622 23.261.644-.765zm.745-.115a.5.5 0 0 1-.745.115l-.644.765a1.5 1.5 0 0 0 2.235-.347l-.846-.533zm19.55-30.994l-19.55 30.994.846.533 19.55-30.993-.846-.534zm.005-.523a.48.48 0 0 1-.005.523l.846.534a1.48 1.48 0 0 0 .001-1.597l-.842.54zm-38.733-38.696c2.93.362 6.305 2.119 9.879 4.822 3.563 2.694 7.272 6.288 10.868 10.246 7.191 7.916 13.885 17.246 17.986 23.628l.842-.54c-4.122-6.416-10.85-15.792-18.088-23.76-3.618-3.984-7.375-7.626-11.005-10.372-3.619-2.737-7.166-4.622-10.36-5.016l-.122.992zm-.403.196c.098-.15.245-.215.403-.196l.122-.992c-.555-.069-1.064.188-1.361.638l.836.55zm28.441 462.149c-32.094 2.118-62.212 6.494-81.143 10.114l.188.982c18.893-3.613 48.97-7.983 81.021-10.098l-.066-.998zm-81.165 10.119c-35.89 8.54-68.009 12.712-96.342 13.84l.039.999c28.402-1.13 60.585-5.312 96.535-13.867l-.232-.972zm23.619-3.568c-4.974 45.955-31.512 69.713-58.367 72.382-26.849 2.668-54.256-15.714-61.082-54.561l-.985.173c6.904 39.288 34.724 58.11 62.166 55.383 27.435-2.726 54.251-26.962 59.262-73.269l-.994-.108zM597 733.5h-4v1h4v-1zm-21.661 54.867c7.886-7.279 13.254-17.784 16.734-27.981s5.09-20.147 5.426-26.359l-.998-.054c-.331 6.121-1.922 15.976-5.374 26.091s-8.752 20.448-16.466 27.569l.678.734zm20.534 22.3l-20.5-23-.746.666 20.5 23 .746-.666zm13.2-22.927l-14 23 .854.52 14-23-.854-.52zm5.781-.094c-1.116-1.115-2.319-1.373-3.372-1.202-1.021.166-1.862.729-2.336 1.202l.708.708c.36-.361 1.019-.798 1.789-.923.739-.12 1.619.038 2.503.923l.708-.708zm11.439 8.949a272.64 272.64 0 0 1-6.113-4.554c-2.256-1.733-4.354-3.422-5.326-4.395l-.708.708c1.028 1.027 3.18 2.755 5.424 4.48a274.32 274.32 0 0 0 6.137 4.571l.586-.81zm-.993 6.805c1.703-1.277 2.304-2.67 2.275-3.937-.029-1.233-.654-2.249-1.221-2.817l-.708.708c.433.432.908 1.216.929 2.133.021.883-.378 1.99-1.875 3.113l.6.8zm-28.092 14.055l15.812-7.481 7.614-3.848c2.144-1.135 3.829-2.099 4.666-2.726l-.6-.8c-.763.573-2.378 1.501-4.534 2.643-2.143 1.135-4.788 2.463-7.586 3.833l-15.788 7.469.416.91zm-3.985-1.039c1.226.818 2.128 1.194 2.783 1.302.62.103 1.206-.023 1.441-.494l-.894-.448c.069-.138.104.036-.384-.044-.454-.075-1.218-.366-2.392-1.148l-.554.832zm-21.599-24.586l21.5 24.5.752-.66-21.5-24.5-.752.66zm-42.105 19.67c21.774-.807 37.63-13.432 42.864-19.679l-.766-.642c-5.1 6.086-20.71 18.528-42.135 19.321l.037 1zM531 833.978l-1-23-1 .044 1 23 1-.044zm19.725-13.896l-20.5 13.5.55.836 20.5-13.5-.55-.836zm6.272 2.863c-.213-1.914-1.036-3.129-2.291-3.578-1.212-.434-2.65-.084-3.963.704l.514.858c1.187-.712 2.299-.912 3.112-.621.77.276 1.447 1.061 1.634 2.747l.994-.11zM557 837v-14h-1v14h1zm115.494-2l-116 1.5.012 1 116-1.5-.012-1zm-22.901-107.004l22.418 107.606.978-.204-22.418-107.606-.978.204zm-178.042 23.396c-18.728.7-35.791.069-51.186-1.508l-.102.994c15.443 1.583 32.553 2.215 51.325 1.513l-.037-.999zm-51.647.402l.814-1.119-.809-.588-.813 1.119.808.588zm-24.459 47.933l24.5-48-.89-.454-24.5 48 .89.454zm47.873 38.887l-48-39.5-.636.772 48 39.5.636-.772zm82.67-2.114l-83 2 .024 1 83-2-.024-1zm-2.487-25.462l2 26 .998-.076-2-26-.998.076zm-52.424-59.059c4.648 26.098 13.809 40.625 23.883 48.807s20.982 9.961 28.993 10.712l.094-.996c-7.949-.745-18.619-2.5-28.457-10.492s-18.909-22.267-23.528-48.206l-.985.175z"/></g><path d="M569 612c-9.428 100.734-48.405 118.731-96.892 114.109-.59-.056-1.108.434-1.105 1.027.503 84.498 57.121 88.291 84.997 71.864 43.234-28.986 39.642-82.109 33.812-116.679-.133-.786.597-1.266 1.082-.634 4.997 6.516 6.173 34.687 6.118 50.507-.003.787.861 1.267 1.524.843 18.524-11.84 28.823-26.648 41.964-49.037 10.699-18.228.036-40.906-6.808-50.24a.99.99 0 0 1-.192-.592v-8.338c0-.481.349-.891.815-1.01 11.654-2.971 12.767-20.882 11.784-30.442-.052-.502-.479-.878-.984-.878h-27.163c-.533 0-.974.431-.994.964-.854 22.169 7.186 29.336 12.12 30.403.513.111.922.541.922 1.066v7.523c0 .3-.244.544-.544.544-.264 0-.491.196-.539.456-5.952 32.302-27.542 42.322-38.498 43.467-.519.054-.978-.344-1.05-.862-13.606-98.082 3.277-119.107 13.294-122.938a.98.98 0 0 1 .681.004c5.029 1.771 11.829.749 14.9-.058a1.05 1.05 0 0 1 .52-.002c22.483 5.643 29.683-1.953 30.649-6.974.07-.364-.101-.719-.409-.924L624 528.5c-21-14-31-4-40.5 7.5-7.6 9.2-12.833 54.5-14.5 76z" fill="#fff"/><g fill="#000"><g stroke="#000"><path d="M521.5 767.5c20.4 28.8 44.5 8.667 54-5-3.667 6.833-14.6 21.1-29 23.5s-27.667-13-32.5-21c33.2-15.6 46.5-49.167 49-64 2.8 30.4-26.5 57-41.5 66.5zm100-158c-1.6-3.6-2-11.5-2-15H644c0 6.8-1 11.5-1.5 13l-21 2z"/><path d="M620.5 550.5c6-4 5.5-13.333 4.5-17.5l20 14c-8.8 7.2-20 5.333-24.5 3.5z" stroke-width=".5"/></g><circle cx="608" cy="534" r="4"/><path d="M707.307 189L683 191l-2-6.5c-1.167-.333-3.6-.8-4 0-.5 1 1.5 11 5 17 .667.167 2.1.2 2.5-1l-.5-4.5 23.32-3-.013-4z"/><path fill-rule="evenodd" d="M707.5 211c2.8 52-29.667 40.333-46 28 41.5 34.5 47.5-4.5 49.5-12.5 1.6-6.4 1.333-21.667 1-28.5 4.8 9.2 15 14 25 15.5v3c-2.833.5-9.1 1.7-11.5 2.5s-21.333 36-30.5 53.5c11.5-15.5 30.5-49.5 32.5-51 1.6-1.2 7-1.167 9.5-1v6.5l-5 2v3.5h5v6h-1.5v4.5h2v3.807l-3 .193v4.5h3v2.5H732c-3.6 8-23.167 19.667-32.5 24.5 0 1.6 2.333 2 3.5 2 11.5-2 32-22 33-22.5.8-.4 1.667.5 2 1v15.5c-4.5.627-12.5 3.5-12.5 5 0 1.2 1 1.833 1.5 2 12.4-1.2 20.833-4.667 23.5-6.5.167-.333.3-1.1-.5-1.5s-6 .167-8.5.5l.5-16c2.5.667 9 .5 18.5-2 9.055-2.383 5-7 2-8.5 11-3.5 5.5-9 1-9.5 10-4.4 7.167-10.167 4.5-12.5 4.8-1.6 5.333-4.333 5-5.5 0-1-.7-3.4-3.5-5s-19.5-.333-27.5.5v-2c23.2-3.2 29.333-19.667 29.5-27.5v-30.5c0-2-1.333-2.167-2-2-20.167-1.167-60.7-3.1-61.5-1.5-.548 1.095-.736 19.441-.693 37l.013 4 .18 18zm4.5-23v-32.5h56l-1 26.5-55 6zm30 38.5l-.5-7.5c16.8-2 28-.83 28 1 0 2-19.5 6-27.5 6.5zm0 11.5v-6c16-3.2 24.5-3.5 24.5-1.5s-16.833 6.333-24.5 7.5zm0 8.807V243c7.167-.833 19.5-1.5 19.5 0s-13.667 3.371-19.5 3.807zm0 6.693V251c6.167-.333 18.1-.7 16.5.5s-11.667 1.833-16.5 2z"/><path d="M661.5 239l.301-.399-.621.783.32-.384zm46-28l-.5.009v.009l.001.009.499-.027zm62-57.5l-.029.499.076.005.074-.019-.121-.485zm2 32.5l.5.011V186h-.5zM742 213.5l-.068-.495-.432.059v.436h.5zm0 2h-.5v.555l.552-.058-.052-.497zm31 4.5h-.5v.07l.019.067L773 220zm-5 5.5l-.158-.474-.828.276.657.574.329-.376zm-4.5 12.5l-.201-.458-1.703.75 1.849.205.055-.497zm-1 9.5l-.152-.476-1.173.373 1.101.55.224-.447zm-2 8.5l-.127-.484.127.484zm-18.5 2l.129-.483-.609-.162-.02.629.5.016zm-.5 16l-.5-.016-.018.59.584-.078-.066-.496zm9 1l.283.412.107-.073.057-.115-.447-.224zm-23.5 6.5l-.158.474.101.034.105-.01-.048-.498zm11-7l.069.495.431-.06v-.435h-.5zm0-15.5h.5v-.151l-.084-.126L738 259zm-35 21.5v.5h.043l.043-.007-.086-.493zm-3.5-2l-.23-.444-.27.14v.304h.5zM732 254v-.5h-.323l-.133.295.456.205zm5.5 0v.5h.5v-.5h-.5zm0-2.5h.5v-.5h-.5v.5zm-3 0h-.5v.5h.5v-.5zm0-4.5l-.032-.499-.468.03V247h.5zm3-.193l.032.499.468-.03v-.469h-.5zm0-3.807h.5v-.5h-.5v.5zm-2 0h-.5v.5h.5v-.5zm0-4.5v-.5h-.5v.5h.5zm1.5 0v.5h.5v-.5h-.5zm0-6h.5v-.5h-.5v.5zm-5 0h-.5v.5h.5v-.5zm0-3.5l-.186-.464-.314.125V229h.5zm5-2l.186.464.314-.125V227h-.5zm0-6.5h.5v-.468l-.467-.031-.033.499zm-9.5 1l.3.4h0l-.3-.4zm-32.5 51l-.443-.232.845.53-.402-.298zm42-56l.087.492.413-.073v-.419h-.5zm0-3h.5v-.431l-.426-.063-.074.494zM712 198l.443-.231-.942.255L712 198zm-4.693-9l.5-.001-.5.001zM683 191l-.478.147.118.384.401-.033L683 191zm-2-6.5l.478-.147-.08-.259-.261-.075-.137.481zm1 17l-.432.252.106.182.205.051.121-.485zm2.5-1l.474.158.035-.104-.012-.109-.497.055zm-.5-4.5l-.064-.496-.487.063.054.488L684 196zm28-40.5v-.5h-.5v.5h.5zm0 32.5h-.5v.558l.554-.061L712 188zm55-6l.054.497.429-.047.017-.431-.5-.019zm1-26.5l.5.019.019-.519H768v.5zM741.5 219l-.059-.496-.471.056.031.473.499-.033zm.5 7.5l-.499.033.033.497.497-.031-.031-.499zm0 5.5l-.098-.49-.402.08v.41h.5zm0 6h-.5v.582l.575-.088L742 238zm0 5l-.058-.497-.442.052V243h.5zm0 3.807h-.5v.539l.537-.041-.037-.498zm0 4.193l-.027-.499-.473.025V251h.5zm0 2.5h-.5v.518l.517-.018-.017-.5zm-80.801-14.101c4.113 3.106 9.246 6.173 14.595 8.209 5.343 2.033 10.949 3.054 15.983 2.007 5.064-1.055 9.495-4.192 12.464-10.351 2.957-6.134 4.46-15.251 3.758-28.291l-.998.054c.698 12.96-.808 21.884-3.661 27.803-2.841 5.893-7.022 8.818-11.767 9.805-4.774.994-10.173.036-15.423-1.962s-10.295-5.011-14.349-8.072l-.602.798zm47.248-87.175c-.06.12-.145.132-.06.096.057-.025.159-.057.318-.091.314-.066.775-.125 1.38-.173 1.206-.097 2.919-.148 5.029-.161 4.217-.025 9.981.103 16.357.317l38 1.787.058-.998-38.025-1.788-16.396-.318c-2.117.013-3.86.064-5.103.164-.619.049-1.131.112-1.508.192-.187.04-.361.088-.505.15-.116.05-.329.155-.439.375l.894.448zm61.174 1.761c.243-.061.59-.052.857.122.235.153.522.509.522 1.393h1c0-1.116-.38-1.843-.978-2.232-.566-.368-1.22-.359-1.643-.253l.242.97zM771 155.5v.024.026.027.029.031.032.033.035.036.038.04.02.021.021.021.022.022.022.023.023.024.023.025.024.025.025.026.026.026.027.027.027.028.028.028.029.029.029.03.03.03.031.031.031.032.032.032.033.033.033.034.034.034.035.034.036.035.036.036.036.037.037.037.038.038.038.039.039.039.039.04.04.04.041.041.041.042.041.042.043.042.043.043.044.044.044.044.044.045.045.046.045.046.047.046.047.047.047.047.048.048.049.048.049.049.049.05.05.05.05.05.051.051.052.051.052.052.052.053.052.053.053.054.054.053.055.054.054.055.055.055.056.056.055.057.056.056.057.057.057.058.057.058.058.058.059.058.059.059.06.059.06.059.06.061.06.061.06.061.062.061.062.061.062.062.063.062.063.062.063.064.063.063.064.064.064.064.064.065.065.064.065.066.065.065.066.066.066.066.066.066.067.067.066.067.067.068.067.068.067.068.068.068.068.069.068.069.069.069.069.069.069.069.07.07.069.07.07.07.071.07.07.071.071.07.071.071.071.072.071.071.072.071.072.072.072.072.072.072.072.073.072.073.072.073.073.073.073.073.073.073.073.074.073.074.073.074.073.074.074.074.074.074.074.074.074.075.074.074.075.074.075.075.074.075.075.075.074.075.075.075.075.075.075.075.076.075.075.075.076.075.075.076.075.075.076.075.076.075.076.075.076.076.075.076.075.076.076.075.076.076.075.076.076.075.076.076.075.076.076.075.076.076.075.076.075.076.076.075.076.075.076.075.076.075.075.076.075.076.075.075.075.076.075.075.075.075.075.075.075.075.075.074.075.075.075.074.075.074.075.074.074.075.074.074.074.074.074.074.074.074.073.074.074.073.074.073.073.073.074.073.073.072.073.073.073.072.073.072.072.072.073.072.071.072.072.072.071.072.071.071.071.071.071.071.071.07.071.07.07.07.07.07.07.07.069.069.07.069.069.069.069.068.069.068.068.068.068.068.068.067.068.067.067.067.067.067.066.067.066.066.066.066.065.066.065.065.065.065.065.064.065.064.064.064.064.063.063.064.063.062.063.062.063.062.062.061.062.061.062.061.06.061.06.061.06.059.06.06.059.059.059.058.059.058.058.058.057.058.057.057.057.056.057.056.056.055.056.055.055.055h1v-.055-.055-.055-.056-.055-.056-.056-.057-.056-.057-.057-.057-.058-.057-.058-.058-.058-.059-.058-.059-.059-.059-.06-.06-.059-.06-.061-.06-.061-.06-.061-.062-.061-.062-.061-.062-.062-.063-.062-.063-.062-.063-.064-.063-.063-.064-.064-.064-.064-.065-.064-.065-.065-.065-.065-.065-.066-.065-.066-.066-.066-.066-.067-.066-.067-.067-.067-.067-.067-.068-.067-.068-.068-.068-.068-.068-.068-.069-.068-.069-.069-.069-.069-.07-.069-.069-.07-.07-.07-.07-.07-.07-.07-.071-.07-.071-.071-.071-.071-.071-.071-.071-.072-.071-.072-.072-.072-.071-.072-.073-.072-.072-.072-.073-.072-.073-.073-.073-.072-.073-.073-.074-.073-.073-.073-.074-.073-.074-.074-.073-.074-.074-.074-.074-.074-.074-.074-.074-.075-.074-.074-.075-.074-.075-.074-.075-.075-.075-.074-.075-.075-.075-.075-.075-.075-.075-.075-.075-.076-.075-.075-.075-.076-.075-.076-.075-.075-.076-.075-.076-.075-.076-.075-.076-.076-.075-.076-.075-.076-.076-.075-.076-.076-.075-.076-.076-.075-.076-.076-.075-.076-.076-.075-.076-.076-.075-.076-.075-.076-.076-.075-.076-.075-.076-.075-.076-.075-.075-.076-.075-.075-.076-.075-.075-.075-.076-.075-.075-.075-.075-.075-.075-.075-.074-.075-.075-.075-.074-.075-.075-.074-.075-.074-.074-.075-.074-.074-.074-.074-.074-.074-.074-.074-.073-.074-.073-.074-.073-.074-.073-.073-.073-.073-.073-.073V168v-.073-.072-.073-.072-.073-.072-.072-.072-.072-.072-.072-.072-.071-.072-.071-.071-.072-.071-.071-.071-.07-.071-.071-.07-.07-.071-.07-.07-.07-.069-.07-.07-.069-.069-.069-.069-.069-.069-.069-.068-.069-.068-.068-.068-.068-.067-.068-.067-.068-.067-.067-.066-.067-.067-.066-.066-.066-.066-.066-.066-.065-.065-.066-.065-.064-.065-.065-.064-.064-.064-.064-.064-.063-.063-.064-.063-.062-.063-.062-.063-.062-.062-.061-.062-.061-.062-.061-.06-.061-.06-.061-.06-.059-.06-.059-.06-.059-.059-.058-.059-.058-.058-.058-.057-.058-.057-.057-.057-.056-.056-.057-.055-.056-.056-.055-.055-.055-.054-.054-.055-.053-.054-.054-.053-.053-.052-.053-.052-.052-.052-.051-.052-.051-.051-.05-.05-.05-.05-.05-.049-.049-.049-.048-.049-.048-.048-.047-.047-.047-.047-.046-.047-.046-.045-.046-.045-.045-.044-.044-.044-.044-.044-.043-.043-.042-.043-.042-.041-.042-.041-.041-.041-.04-.04-.04-.039-.039-.039-.039-.038-.038-.038-.037-.037-.037-.036-.036-.036-.035-.036-.034-.035-.034-.034-.034-.033-.033-.033-.032-.032-.032-.031-.031-.031-.03-.03-.03-.029-.029-.029-.028-.028-.028-.027-.027-.027-.026-.026-.026-.025-.025-.024-.025-.023-.024-.023V156v-.022-.022-.022-.021-.021-.021-.02-.02-.039-.037-.036-.034-.033-.031-.029-.029-.026-.025l-1-.012zm0 30.489c-.162 7.63-6.151 23.855-29.068 27.016l.136.99c23.483-3.239 29.761-19.947 29.932-27.984l-1-.022zM741.5 213.5v2h1v-2h-1zm.552 2.497c3.993-.416 10.157-.94 15.668-1.16 2.757-.11 5.341-.144 7.405-.052 1.032.047 1.925.124 2.64.237.729.115 1.22.26 1.487.412l.496-.868c-.433-.248-1.077-.413-1.827-.532-.766-.121-1.7-.201-2.752-.248-2.105-.094-4.721-.059-7.489.052-5.539.221-11.725.747-15.732 1.165l.104.994zm27.2-.563c2.638 1.507 3.248 3.738 3.248 4.566h1c0-1.172-.79-3.741-3.752-5.434l-.496.868zm3.267 4.703c.235.821-.033 3.341-4.677 4.889l.316.948c4.956-1.652 5.755-4.598 5.323-6.111l-.962.274zm-4.848 5.739c1.272 1.113 2.519 2.995 2.331 5.054-.184 2.019-1.777 4.445-6.703 6.612l.402.916c5.074-2.233 7.065-4.891 7.297-7.438.229-2.507-1.274-4.676-2.669-5.896l-.658.752zm-4.226 12.621a7.25 7.25 0 0 1 3.07 1.124c.921.604 1.583 1.364 1.819 2.148.223.743.087 1.593-.768 2.497-.876.927-2.503 1.894-5.218 2.758l.304.952c2.785-.886 4.596-1.919 5.641-3.023 1.067-1.128 1.338-2.34.998-3.472-.327-1.091-1.195-2.019-2.228-2.696-1.039-.682-2.301-1.148-3.508-1.282l-.11.994zm-1.169 9.45c.704.352 1.474.89 2.092 1.527.623.643 1.053 1.345 1.159 2.022.1.642-.077 1.327-.814 2.016-.759.71-2.112 1.418-4.34 2.004l.254.968c2.3-.606 3.836-1.369 4.769-2.241.956-.894 1.275-1.903 1.119-2.902-.151-.962-.732-1.844-1.43-2.563a8.99 8.99 0 0 0-2.361-1.725l-.448.894zm-1.903 7.569c-4.727 1.244-8.698 1.905-11.791 2.173-3.108.27-5.288.139-6.453-.172l-.258.966c1.335.356 3.655.475 6.797.203 3.157-.274 7.186-.946 11.959-2.202l-.254-.968zm-18.873 2.468l-.5 16 1 .032.5-16-1-.032zm.066 16.512c1.244-.166 3.16-.39 4.86-.523.852-.066 1.641-.108 2.262-.111a7.78 7.78 0 0 1 .77.029c.1.009.179.021.237.034s.084.024.081.022l.448-.894c-.189-.095-.439-.135-.667-.158a8.75 8.75 0 0 0-.873-.032c-.657.002-1.474.046-2.335.114-1.725.134-3.659.36-4.915.527l.132.992zm8.21-.549c.255.127.322.281.343.408a.76.76 0 0 1-.066.421l.894.448c.119-.239.225-.62.159-1.029-.071-.44-.337-.869-.882-1.142l-.448.894zm.441.641c-2.573 1.769-10.915 5.219-23.265 6.414l.096.996c12.45-1.205 20.975-4.688 23.735-6.586l-.566-.824zm-23.059 6.438c-.18-.06-.483-.219-.733-.483-.242-.255-.425-.595-.425-1.043h-1c0 .752.317 1.329.7 1.732.375.394.822.636 1.142.742l.316-.948zM726 279.5c0 .024-.003-.061.203-.263.187-.184.479-.398.874-.634.785-.469 1.896-.976 3.165-1.463 2.538-.975 5.625-1.838 7.827-2.145l-.138-.99c-2.298.32-5.461 1.208-8.048 2.201-1.293.497-2.464 1.028-3.319 1.539-.426.254-.794.515-1.062.778-.249.245-.502.578-.502.977h1zm12.5-5V259h-1v15.5h1zm-.084-15.777a3.67 3.67 0 0 0-.965-.977c-.424-.281-1.042-.51-1.675-.193l.448.894c.167-.083.382-.062.675.132s.544.486.685.698l.832-.554zm-2.64-1.17c-.079.04-.164.102-.231.153-.076.059-.169.135-.275.224a49.21 49.21 0 0 0-.834.723l-2.728 2.417c-2.239 1.974-5.247 4.577-8.582 7.226s-6.989 5.339-10.519 7.488c-3.54 2.155-6.913 3.74-9.693 4.223l.172.986c2.97-.517 6.472-2.182 10.041-4.355 3.58-2.179 7.269-4.896 10.622-7.559s6.376-5.28 8.621-7.259l2.727-2.417.815-.707.242-.197c.071-.054.087-.06.07-.052l-.448-.894zM703 280c-.543 0-1.348-.095-1.997-.362-.66-.272-1.003-.643-1.003-1.138h-1c0 1.105.824 1.734 1.622 2.062.809.333 1.754.438 2.378.438v-1zm-3.27-1.056c4.681-2.424 11.925-6.56 18.455-11.096 3.265-2.268 6.36-4.642 8.87-6.957 2.499-2.307 4.458-4.591 5.401-6.686l-.912-.41c-.857 1.905-2.694 4.079-5.167 6.361-2.464 2.273-5.519 4.618-8.762 6.871-6.487 4.506-13.693 8.62-18.345 11.029l.46.888zM732 254.5h5.5v-1H732v1zm6-.5v-2.5h-1v2.5h1zm-.5-3h-3v1h3v-1zm-2.5.5V247h-1v4.5h1zm-.468-4.001l3-.193-.064-.998-3 .193.064.998zm3.468-.692V243h-1v3.807h1zm-.5-4.307h-2v1h2v-1zm-1.5.5v-4.5h-1v4.5h1zm-.5-4h1.5v-1h-1.5v1zm2-.5v-6h-1v6h1zm-.5-6.5h-5v1h5v-1zm-4.5.5V229h-1v3.5h1zm-.314-3.036l5-2-.372-.928-5 2 .372.928zM737.5 227v-6.5h-1v6.5h1zm-.467-6.999c-1.266-.084-3.264-.135-5.153-.012-.944.061-1.873.166-2.676.336-.787.166-1.514.407-2.004.775l.6.8c.31-.232.858-.437 1.611-.597.739-.156 1.616-.257 2.534-.317 1.836-.119 3.788-.069 5.022.013l.066-.998zM727.2 221.1c-.191.143-.422.422-.668.749-.26.347-.579.806-.947 1.361-.739 1.111-1.694 2.628-2.815 4.45l-8.385 13.831c-6.44 10.63-14.053 22.983-19.787 30.711l.804.596c5.766-7.772 13.403-20.169 19.838-30.789l8.381-13.825 2.796-4.421c.365-.548.671-.989.915-1.313.257-.343.409-.506.468-.55l-.6-.8zm-31.757 51.632l17.781-33.001c3.089-5.542 5.963-10.557 8.213-14.234 1.126-1.84 2.091-3.337 2.846-4.396.379-.53.698-.941.953-1.228.128-.143.233-.248.315-.318.091-.077.124-.086.107-.081l-.316-.948c-.167.055-.316.163-.439.267-.13.111-.269.252-.414.415-.29.325-.633.77-1.02 1.312-.775 1.088-1.755 2.609-2.885 4.455-2.261 3.695-5.143 8.724-8.233 14.269l-17.794 33.024.886.464zm30.215-53.258c2.358-.785 8.583-1.979 11.429-2.482l-.174-.984c-2.821.497-9.129 1.703-11.571 2.518l.316.948zM737.5 216.5v-3h-1v3h1zm-.426-3.494c-9.92-1.488-19.935-6.237-24.631-15.237l-.886.462c4.904 9.4 15.289 14.251 25.369 15.763l.148-.988zm-25.573-14.982c.166 3.408.316 8.922.224 14.38-.092 5.475-.426 10.838-1.21 13.975l.97.242c.816-3.263 1.148-8.733 1.24-14.2.092-5.484-.058-11.02-.226-14.445l-.998.048zm-.986 28.355c-.508 2.033-1.247 5.922-2.729 10.135s-3.682 8.669-7.064 11.807c-3.358 3.117-7.907 4.956-14.179 3.912-6.304-1.049-14.379-5.018-24.723-13.617l-.64.768c10.406 8.651 18.644 12.745 25.199 13.836 6.587 1.096 11.445-.845 15.024-4.166 3.555-3.299 5.823-7.935 7.326-12.208s2.264-8.258 2.756-10.225l-.97-.242zm-2.708-37.38l.125-24.665.222-8.538c.047-1.071.099-1.938.155-2.567.028-.316.057-.565.086-.748.033-.206.057-.268.052-.257l-.894-.448c-.074.148-.115.358-.145.549-.034.215-.066.489-.095.814-.058.653-.111 1.536-.158 2.613-.094 2.156-.168 5.106-.223 8.566l-.125 24.683 1-.002zm-.541-.497l-24.307 2 .082.996 24.307-2-.082-.996zm-23.788 2.351l-2-6.5-.956.294 2 6.5.956-.294zm-2.341-6.834c-.603-.172-1.539-.381-2.388-.443-.422-.03-.854-.027-1.222.05-.351.074-.77.242-.974.65l.894.448c.012-.013.024-.024.046-.037.046-.027.122-.057.239-.082.237-.05.562-.059.944-.031.759.055 1.624.246 2.187.407l.274-.962zm-4.584.257c-.074.149-.102.322-.116.468-.014.158-.016.343-.009.545.015.406.068.922.155 1.518.175 1.193.492 2.743.933 4.443.88 3.396 2.269 7.445 4.052 10.502l.864-.504c-1.717-2.943-3.078-6.894-3.948-10.248-.434-1.675-.742-3.188-.911-4.338-.085-.576-.133-1.053-.146-1.408-.006-.179-.003-.317.006-.418.011-.114.026-.136.014-.112l-.894-.448zm5.326 17.709c.39.098 1 .158 1.59.013.609-.15 1.237-.534 1.505-1.34l-.948-.316c-.132.394-.421.593-.795.685-.393.097-.833.057-1.11-.012l-.242.97zm3.118-1.54l-.5-4.5-.994.11.5 4.5.994-.11zM708 210.991l-.18-17.993-1 .004.18 18.007 1-.018zm-.18-17.993l-.013-3.999-1 .002.013 4.001 1-.004zm-23.756 3.498l23.32-3-.127-.992-23.321 3 .128.992zM711.5 155.5V188h1v-32.5h-1zm.554 32.997l55-6-.108-.994-55 6 .108.994zm55.446-6.478l1-26.5-1-.038-1 26.5 1 .038zM768 155h-56v1h56v-1zm-26.999 64.033l.5 7.5.998-.066-.5-7.5-.998.066zm1.03 7.966c4.037-.252 10.941-1.383 16.828-2.699 2.945-.657 5.652-1.365 7.63-2.038.986-.335 1.811-.668 2.398-.991.292-.16.549-.331.739-.514.179-.172.374-.428.374-.757h-1c0-.079.043-.07-.068.037-.099.095-.269.217-.526.358-.511.281-1.271.592-2.239.921-1.928.655-4.596 1.354-7.526 2.009-5.863 1.309-12.709 2.428-16.672 2.676l.062.998zM770 220c0-.507-.383-.855-.757-1.079-.4-.24-.957-.442-1.632-.615-1.358-.347-3.319-.605-5.783-.741-4.936-.274-11.966-.064-20.387.939l.118.992c8.379-.997 15.349-1.202 20.213-.933 2.436.135 4.325.388 5.592.712.637.163 1.086.337 1.365.504.304.182.271.27.271.221h1zm-28.5 12v6h1v-6h-1zm.575 6.494c3.859-.587 10.006-1.967 15.188-3.451 2.59-.741 4.955-1.513 6.679-2.23.859-.357 1.58-.709 2.094-1.046.256-.169.482-.346.648-.535.161-.182.316-.431.316-.732h-1c0-.051.024-.031-.066.07-.084.095-.228.217-.447.361-.436.286-1.09.61-1.929.959-1.672.695-3.994 1.454-6.571 2.192-5.151 1.475-11.255 2.844-15.062 3.424l.15.988zM767 230.5c0-.462-.259-.815-.618-1.056-.344-.231-.814-.387-1.365-.494-1.108-.215-2.72-.262-4.794-.149-4.16.227-10.312 1.107-18.321 2.709l.196.98c7.991-1.598 14.089-2.468 18.179-2.691 2.051-.112 3.564-.059 4.55.132.496.097.815.22.998.343.168.113.175.188.175.226h1zM741.5 243v3.807h1V243h-1zm.537 4.305c2.933-.219 7.824-.797 11.985-1.51 2.078-.355 3.99-.747 5.389-1.148.696-.199 1.289-.408 1.717-.625.212-.108.41-.23.561-.374.146-.138.311-.356.311-.648h-1c0-.105.058-.132.001-.078-.051.049-.153.121-.326.209-.342.173-.863.361-1.539.555-1.346.385-3.216.77-5.283 1.124-4.131.707-8.99 1.282-11.89 1.498l.074.997zM762 243c0-.288-.155-.501-.319-.639-.158-.133-.357-.226-.559-.297-.407-.144-.963-.242-1.608-.311-1.3-.139-3.091-.17-5.087-.128-3.997.084-8.888.46-12.485.878l.116.994c3.57-.415 8.429-.789 12.39-.872 1.984-.042 3.724-.01 4.96.122.623.067 1.086.156 1.382.26a.81.81 0 0 1 .248.12c.02.016-.038-.027-.038-.127h1zm-20.5 8v2.5h1V251h-1zm.517 3c2.424-.084 6.16-.284 9.495-.615 1.666-.165 3.241-.364 4.506-.598.631-.117 1.195-.245 1.657-.385.448-.136.851-.297 1.125-.502l-.6-.8c-.126.095-.388.216-.815.345-.413.125-.937.245-1.55.359-1.224.227-2.767.422-4.422.586-3.307.328-7.021.527-9.43.61l.034 1zm16.783-2.1c.121-.091.351-.294.346-.615-.006-.345-.27-.529-.398-.6-.152-.086-.341-.146-.532-.192-.197-.047-.43-.086-.687-.12-1.024-.134-2.586-.19-4.364-.198-3.568-.017-8.104.159-11.192.326l.054.998c3.079-.166 7.593-.341 11.133-.324 1.776.008 3.283.065 4.239.19.238.031.433.065.585.101.159.038.242.072.274.09.058.033-.108-.036-.112-.255-.003-.195.133-.26.054-.201l.6.8zM772 186v-30.5h-1V186h1z"/></g></svg>