<svg xmlns="http://www.w3.org/2000/svg" width="986" height="215" fill="none" xmlns:v="https://vecta.io/nano"><path d="M623.142 147.493c-2.866-3.676-6.459-8.587-11.324-15.289l-50.005-68.887-2.428 1.762 2.428-1.762-.94-1.295-.103-.141c-7.116-9.808-14.184-19.549-21.043-26.566-7.624-7.799-19.483-16.982-36.447-16.69s-28.5 9.876-35.852 17.932c-6.614 7.248-13.344 17.227-20.119 27.275l-.097.144-.894 1.326 2.487 1.678-2.487-1.678-43.626 64.658-11.191 16.246c-2.847-3.92-6.398-9.143-11.191-16.246l-43.972-65.173-2.487 1.678 2.487-1.678-.889-1.319-.097-.144c-6.71-9.95-13.386-19.85-19.955-27.051-7.315-8.019-18.764-17.529-35.606-17.901s-28.699 8.624-36.36 16.312c-6.881 6.904-13.988 16.501-21.131 26.145l-.102.139-.947 1.278 2.411 1.786-2.411-1.786-54.174 73.113-10.761 14.24c-2.734-3.387-6.18-7.927-10.87-14.156L54.269 14.359C44.8 1.785 26.932-.733 14.358 8.736S-.734 36.073 8.734 48.646L99.912 169.73l.929 1.234.1.134c6.858 9.111 13.745 18.261 20.431 24.883 7.512 7.44 18.965 15.993 35.185 15.931s27.606-8.705 35.061-16.203c6.635-6.673 13.451-15.876 20.238-25.04l.099-.135.92-1.241 54.174-73.113 11.356-15.023c2.708 3.731 6.095 8.71 10.682 15.51l43.972 65.174 2.487-1.678-2.486 1.678.911 1.35.099.147c7.012 10.398 13.933 20.661 20.708 28.077 7.48 8.187 19.328 18.042 36.723 18.042s29.244-9.855 36.724-18.042c6.775-7.416 13.696-17.679 20.708-28.077l.1-.147.91-1.35 43.626-64.659 10.792-15.669c2.866 3.675 6.459 8.587 11.324 15.289l50.005 68.887.939 1.295 2.429-1.762-2.429 1.762.104.143c7.116 9.807 14.184 19.548 21.043 26.564 7.624 7.8 19.483 16.982 36.447 16.691s28.5-9.876 35.852-17.933c6.614-7.248 13.344-17.228 20.12-27.275l.096-.143.894-1.326 42.575-63.102 11.524-16.726c2.827 4.123 6.337 9.603 11.061 17.036l37.593 59.151h0l.096.15c6.914 10.885 13.703 21.571 20.4 29.313 7.349 8.495 19.169 18.904 36.914 19.147s29.847-9.838 37.426-18.129c6.906-7.555 13.985-18.051 21.195-28.741l.1-.15h.001l77.057-114.21c8.803-13.048 5.363-30.762-7.685-39.566s-30.762-5.363-39.566 7.685l-76.133 112.84-11.524 16.726c-2.827-4.123-6.337-9.603-11.061-17.035l-37.592-59.15h0l-.096-.152c-6.915-10.885-13.704-21.571-20.401-29.313-7.349-8.496-19.17-18.904-36.915-19.147s-29.846 9.838-37.425 18.129c-6.907 7.555-13.986 18.052-21.196 28.743l-.1.149-.924 1.369-42.575 63.102-10.792 15.669z" stroke="#000" stroke-width="6"/></svg>