<?xml version="1.0" encoding="UTF-8"?>
<svg width="752pt" height="752pt" version="1.1" viewBox="0 0 752 752" xmlns="http://www.w3.org/2000/svg">
 <path d="m290.48 243.8c20.195 0 36.574 16.371 36.574 36.574 0 20.195-16.379 36.57-36.574 36.57-20.195 0-36.574-16.371-36.574-36.57 0-20.203 16.379-36.574 36.574-36.574zm111.8-38.66m0 0c20.203 0 36.574 16.371 36.574 36.574 0 20.195-16.371 36.574-36.574 36.574-20.195 0-36.574-16.371-36.574-36.574 0-20.195 16.379-36.574 36.574-36.574zm106.58 68.961m0 0c20.195 0 36.574 16.371 36.574 36.574 0 20.195-16.379 36.574-36.574 36.574-20.195 0-36.574-16.371-36.574-36.574 0-20.195 16.379-36.574 36.574-36.574zm-204.8 202.71m0 0c20.195 0 36.574 16.371 36.574 36.57 0 20.195-16.379 36.574-36.574 36.574s-36.574-16.379-36.574-36.574 16.371-36.57 36.574-36.57zm-65.824-120.16m0 0c20.195 0 36.574 16.371 36.574 36.57 0 20.195-16.379 36.574-36.574 36.574-20.195 0-36.574-16.371-36.574-36.574 0-20.195 16.371-36.57 36.574-36.57zm258.73 69.062m0 0c136.97-6.8516 166.74-281.07-93.102-276.82-166.12 2.7227-289.33 152.5-252.92 308.05 21.223 90.668 114.5 178.8 202.75 146.83 0 0 78.004-22.59 70.234-103.36-0.011719-0.082031 0.015625-0.26562 0-0.53516-1.1914-26.102-35.562-34.695-36.488-35.109-42.27-18.922-67.461-55.273-49.871-101.38 5.3594-14.043 14.578-27.738 25.727-37.844 11.578-10.488 29.258-19.582 44-9.2344 3.0117 2.1133 5.4414 4.9375 7.0625 8.2344 3.4297 6.9922 2.5742 13.594-0.10156 20.473-0.39844 1.0234-1.0117 2.3906-1.2031 3.4766-0.46094 2.6328-1.0273 7.082-0.9375 9.3281 0.058594 0.47266 0.12109 42.789 33.07 64.223 24.703 10.355 50.238 3.7812 51.777 3.668z" fill-rule="evenodd"/>
</svg>
