<svg width="642" height="153" viewBox="0 0 642 153" fill="none" xmlns="http://www.w3.org/2000/svg">
	<g clip-path="url(#clip0_2_54)">
		<rect y="153" width="153" height="642" rx="38" transform="rotate(-90 0 153)" fill="#00145B"/>
		<path d="M209.336 98.64C206.989 98.64 204.856 98.064 202.936 96.912C201.059 95.7173 199.565 94.1387 198.456 92.176C197.347 90.2133 196.792 88.016 196.792 85.584L196.856 65.616C196.856 63.2693 197.389 61.136 198.456 59.216C199.565 57.2533 201.059 55.696 202.936 54.544C204.856 53.3493 206.989 52.752 209.336 52.752C211.683 52.752 213.795 53.328 215.672 54.48C217.549 55.632 219.043 57.1893 220.152 59.152C221.261 61.072 221.816 63.2267 221.816 65.616V68.56C221.816 68.7307 221.731 68.816 221.56 68.816H214.392C214.221 68.816 214.136 68.7307 214.136 68.56V65.616C214.136 64.208 213.667 62.992 212.728 61.968C211.832 60.944 210.701 60.432 209.336 60.432C207.8 60.432 206.627 60.9653 205.816 62.032C205.005 63.056 204.6 64.2507 204.6 65.616V85.584C204.6 87.1627 205.048 88.4427 205.944 89.424C206.883 90.4053 208.013 90.896 209.336 90.896C210.701 90.896 211.832 90.3627 212.728 89.296C213.667 88.1867 214.136 86.9493 214.136 85.584V82.64C214.136 82.4693 214.221 82.384 214.392 82.384H221.624C221.795 82.384 221.88 82.4693 221.88 82.64V85.584C221.88 88.016 221.304 90.2133 220.152 92.176C219.043 94.1387 217.549 95.7173 215.672 96.912C213.795 98.064 211.683 98.64 209.336 98.64ZM237.76 98.64C235.456 98.64 233.344 98.064 231.424 96.912C229.547 95.7173 228.032 94.16 226.88 92.24C225.728 90.2773 225.152 88.1227 225.152 85.776L225.216 65.488C225.216 63.1413 225.771 61.008 226.88 59.088C228.032 57.168 229.568 55.632 231.488 54.48C233.408 53.328 235.499 52.752 237.76 52.752C240.064 52.752 242.155 53.328 244.032 54.48C245.909 55.632 247.403 57.168 248.512 59.088C249.664 61.008 250.24 63.1413 250.24 65.488L250.304 85.776C250.304 88.1227 249.728 90.2773 248.576 92.24C247.467 94.16 245.952 95.7173 244.032 96.912C242.155 98.064 240.064 98.64 237.76 98.64ZM237.76 90.896C239.04 90.896 240.149 90.384 241.088 89.36C242.069 88.2933 242.56 87.0987 242.56 85.776L242.496 65.488C242.496 64.08 242.048 62.8853 241.152 61.904C240.256 60.9227 239.125 60.432 237.76 60.432C236.437 60.432 235.307 60.9227 234.368 61.904C233.429 62.8427 232.96 64.0373 232.96 65.488V85.776C232.96 87.184 233.429 88.4 234.368 89.424C235.307 90.4053 236.437 90.896 237.76 90.896ZM255.106 98C254.765 98 254.594 97.8507 254.594 97.552L254.53 53.968C254.53 53.6267 254.701 53.456 255.042 53.456H260.802L271.618 78.672L271.298 53.968C271.298 53.6267 271.49 53.456 271.874 53.456H278.21C278.466 53.456 278.594 53.6267 278.594 53.968L278.658 97.616C278.658 97.872 278.551 98 278.338 98H272.706L261.634 74.448L262.082 97.488C262.082 97.8293 261.89 98 261.506 98H255.106ZM284.154 98C283.812 98 283.642 97.8507 283.642 97.552L283.578 53.968C283.578 53.6267 283.748 53.456 284.09 53.456H289.85L300.666 78.672L300.346 53.968C300.346 53.6267 300.538 53.456 300.922 53.456H307.258C307.514 53.456 307.642 53.6267 307.642 53.968L307.706 97.616C307.706 97.872 307.599 98 307.386 98H301.754L290.682 74.448L291.13 97.488C291.13 97.8293 290.938 98 290.554 98H284.154ZM312.881 98C312.71 98 312.625 97.8933 312.625 97.68L312.689 53.712C312.689 53.5413 312.774 53.456 312.945 53.456H333.489C333.66 53.456 333.745 53.5627 333.745 53.776V60.944C333.745 61.1147 333.66 61.2 333.489 61.2H320.369V71.184H333.489C333.66 71.184 333.745 71.2693 333.745 71.44L333.809 78.672C333.809 78.8427 333.724 78.928 333.553 78.928H320.369V90.128H333.553C333.724 90.128 333.809 90.2347 333.809 90.448V97.744C333.809 97.9147 333.724 98 333.553 98H312.881ZM349.636 98.64C347.289 98.64 345.156 98.064 343.236 96.912C341.359 95.7173 339.865 94.1387 338.756 92.176C337.647 90.2133 337.092 88.016 337.092 85.584L337.156 65.616C337.156 63.2693 337.689 61.136 338.756 59.216C339.865 57.2533 341.359 55.696 343.236 54.544C345.156 53.3493 347.289 52.752 349.636 52.752C351.983 52.752 354.095 53.328 355.972 54.48C357.849 55.632 359.343 57.1893 360.452 59.152C361.561 61.072 362.116 63.2267 362.116 65.616V68.56C362.116 68.7307 362.031 68.816 361.86 68.816H354.692C354.521 68.816 354.436 68.7307 354.436 68.56V65.616C354.436 64.208 353.967 62.992 353.028 61.968C352.132 60.944 351.001 60.432 349.636 60.432C348.1 60.432 346.927 60.9653 346.116 62.032C345.305 63.056 344.9 64.2507 344.9 65.616V85.584C344.9 87.1627 345.348 88.4427 346.244 89.424C347.183 90.4053 348.313 90.896 349.636 90.896C351.001 90.896 352.132 90.3627 353.028 89.296C353.967 88.1867 354.436 86.9493 354.436 85.584V82.64C354.436 82.4693 354.521 82.384 354.692 82.384H361.924C362.095 82.384 362.18 82.4693 362.18 82.64V85.584C362.18 88.016 361.604 90.2133 360.452 92.176C359.343 94.1387 357.849 95.7173 355.972 96.912C354.095 98.064 351.983 98.64 349.636 98.64ZM371.808 98C371.637 98 371.552 97.8933 371.552 97.68V61.2H363.232C363.018 61.2 362.912 61.0933 362.912 60.88L362.976 53.712C362.976 53.5413 363.061 53.456 363.232 53.456H387.552C387.765 53.456 387.872 53.5413 387.872 53.712V60.88C387.872 61.0933 387.786 61.2 387.616 61.2H379.232L379.296 97.68C379.296 97.8933 379.21 98 379.04 98H371.808ZM405.141 98C404.97 98 404.863 97.8933 404.821 97.68L397.269 53.712C397.226 53.5413 397.29 53.456 397.461 53.456H404.629C404.799 53.456 404.906 53.5413 404.949 53.712L409.045 82.64L413.269 53.712C413.311 53.5413 413.439 53.456 413.653 53.456H419.413C419.583 53.456 419.69 53.5413 419.733 53.712L423.893 82.64L428.053 53.712C428.095 53.5413 428.202 53.456 428.373 53.456H435.477C435.69 53.456 435.775 53.5413 435.733 53.712L428.117 97.68C428.074 97.7653 428.01 97.8507 427.925 97.936C427.839 97.9787 427.797 98 427.797 98H420.053C419.925 98 419.818 97.8933 419.733 97.68L416.469 74.704L413.205 97.68C413.162 97.8933 413.055 98 412.885 98H405.141ZM439.183 98C438.969 98 438.863 97.8933 438.863 97.68L438.927 53.712C438.927 53.5413 439.012 53.456 439.183 53.456H446.351C446.521 53.456 446.607 53.5413 446.607 53.712L446.671 97.68C446.671 97.8933 446.585 98 446.415 98H439.183ZM458.06 98C457.889 98 457.804 97.8933 457.804 97.68V61.2H449.484C449.271 61.2 449.164 61.0933 449.164 60.88L449.228 53.712C449.228 53.5413 449.313 53.456 449.484 53.456H473.804C474.017 53.456 474.124 53.5413 474.124 53.712V60.88C474.124 61.0933 474.039 61.2 473.868 61.2H465.484L465.548 97.68C465.548 97.8933 465.463 98 465.292 98H458.06ZM476.901 98C476.73 98 476.645 97.8933 476.645 97.68L476.709 53.712C476.709 53.5413 476.816 53.456 477.029 53.456H484.133C484.346 53.456 484.453 53.5413 484.453 53.712L484.389 71.12H493.989V53.712C493.989 53.5413 494.074 53.456 494.245 53.456H501.349C501.562 53.456 501.669 53.5413 501.669 53.712L501.797 97.68C501.797 97.8933 501.69 98 501.477 98H494.309C494.096 98 493.989 97.8933 493.989 97.68V78.864H484.389V97.68C484.389 97.8933 484.304 98 484.133 98H476.901ZM515.496 98C515.325 98 515.24 97.8933 515.24 97.68L515.368 53.712C515.368 53.5413 515.453 53.456 515.624 53.456H523.432C523.603 53.456 523.752 53.5413 523.88 53.712L529.704 62.16L535.528 53.712C535.656 53.5413 535.805 53.456 535.976 53.456H543.848C544.019 53.456 544.104 53.5413 544.104 53.712L544.232 97.68C544.232 97.8933 544.147 98 543.976 98H536.744C536.573 98 536.488 97.8933 536.488 97.68L536.424 65.04L529.704 74.768L523.048 65.04L522.984 97.68C522.984 97.8933 522.899 98 522.728 98H515.496ZM549.231 98C549.06 98 548.975 97.8933 548.975 97.68L549.039 53.712C549.039 53.5413 549.124 53.456 549.295 53.456H569.839C570.01 53.456 570.095 53.5627 570.095 53.776V60.944C570.095 61.1147 570.01 61.2 569.839 61.2H556.719V71.184H569.839C570.01 71.184 570.095 71.2693 570.095 71.44L570.159 78.672C570.159 78.8427 570.074 78.928 569.903 78.928H556.719V90.128H569.903C570.074 90.128 570.159 90.2347 570.159 90.448V97.744C570.159 97.9147 570.074 98 569.903 98H549.231Z" fill="#C4CFF6"/>
		<path d="M124.318 63.4572C122.943 67.0545 121.355 70.4404 119.799 73.705C116.565 80.5669 113.511 87.0507 112.801 94.774C112.529 97.5702 110.262 99.6715 107.497 99.6715H80.4872C77.7366 99.6715 75.4693 97.571 75.197 94.774C74.4866 87.0351 71.4183 80.5512 68.1841 73.6894C66.6421 70.4247 65.0555 67.0386 63.6803 63.4572C62.592 60.5704 63.922 57.3058 66.7181 56.0212C68.5621 55.1747 70.4514 54.419 72.3251 53.7391C75.3786 52.6509 78.5072 51.7896 81.6207 51.1997C89.8273 49.5521 98.171 49.5521 106.394 51.1997C109.492 51.7887 112.621 52.6509 115.674 53.7541C117.549 54.4191 119.438 55.1748 121.282 56.0212C124.077 57.3058 125.407 60.5704 124.319 63.4572H124.318Z" fill="#C4CFF7"/>
		<path d="M106.091 102.696V110.253C106.091 111.085 105.411 111.765 104.579 111.765H98.5334V125.368C98.5334 126.2 97.8536 126.88 97.022 126.88C96.1903 126.88 95.5105 126.2 95.5105 125.368V111.765H92.4876V125.368C92.4876 126.2 91.8078 126.88 90.9761 126.88C90.1445 126.88 89.4647 126.2 89.4647 125.368V111.765H83.4189C82.5873 111.765 81.9075 111.085 81.9075 110.253V102.696H106.091Z" fill="#C4CFF7"/>
		<path d="M104.58 39.2156V47.8149C105.382 47.9362 106.183 48.0715 106.984 48.2381C110.188 48.8429 113.468 49.7496 116.672 50.898V39.2155L104.58 39.2156Z" fill="#C4CFF7"/>
		<path d="M83.4196 33.1681V36.191H71.3279V33.1681C71.3279 29.8275 74.033 27.1223 77.3736 27.1223C80.7142 27.1223 83.4194 29.8275 83.4194 33.1681H83.4196Z" fill="#C4CFF7"/>
		<path d="M116.671 33.1681V36.191H104.579V33.1681C104.579 29.8275 107.285 27.1223 110.625 27.1223C113.966 27.1223 116.671 29.8275 116.671 33.1681H116.671Z" fill="#C4CFF7"/>
		<path d="M71.3289 39.2156V50.8825C74.5788 49.734 77.8434 48.8422 81.0627 48.2374C81.8489 48.0864 82.6344 47.9354 83.4207 47.8141V39.2148L71.3289 39.2156Z" fill="#C4CFF7"/>
	</g>
	<defs>
		<clipPath id="clip0_2_54">
			<rect y="153" width="153" height="642" rx="38" transform="rotate(-90 0 153)" fill="white"/>
		</clipPath>
	</defs>
</svg>
