<svg width="516" height="153" viewBox="0 0 516 153" fill="none" xmlns="http://www.w3.org/2000/svg">
<g clip-path="url(#clip0_2_32)">
<rect y="153" width="153" height="516" rx="38" transform="rotate(-90 0 153)" fill="#BCFFC3"/>
<path d="M193.094 59.4375C191.531 59.4375 190.271 59.7708 189.312 60.4375C188.375 61.1042 187.906 62.0521 187.906 63.2812C187.906 63.9062 188.052 64.5 188.344 65.0625C188.635 65.6042 189.031 66.125 189.531 66.625C190.031 67.1042 190.625 67.5729 191.312 68.0312C192.021 68.4688 192.781 68.9062 193.594 69.3438L199.062 72.2188C200.396 72.9062 201.688 73.6667 202.938 74.5C204.188 75.3125 205.302 76.25 206.281 77.3125C207.26 78.3542 208.042 79.5417 208.625 80.875C209.229 82.2083 209.531 83.7188 209.531 85.4062C209.531 86.9271 209.208 88.4583 208.562 90C207.917 91.5208 206.875 92.8958 205.438 94.125C204 95.3542 202.125 96.3542 199.812 97.125C197.521 97.8958 194.708 98.2812 191.375 98.2812C189.958 98.2812 188.531 98.2292 187.094 98.125C185.656 98.0417 184.271 97.9167 182.938 97.75C181.604 97.6042 180.333 97.4167 179.125 97.1875C177.938 96.9792 176.875 96.75 175.938 96.5L176.406 82.4688H183.625L183.75 83.5C183.833 84.3125 184 85.1667 184.25 86.0625C184.521 86.9583 184.969 87.7812 185.594 88.5312C186.24 89.2812 187.104 89.9062 188.188 90.4062C189.292 90.8854 190.74 91.125 192.531 91.125C194.219 91.125 195.583 90.8021 196.625 90.1562C197.688 89.5104 198.219 88.5938 198.219 87.4062C198.219 86.8021 198.083 86.25 197.812 85.75C197.542 85.2292 197.156 84.7396 196.656 84.2812C196.156 83.8021 195.542 83.3438 194.812 82.9062C194.104 82.4479 193.302 81.9792 192.406 81.5L186.312 78.25C185.021 77.5625 183.792 76.8125 182.625 76C181.458 75.1875 180.427 74.2708 179.531 73.25C178.635 72.2292 177.917 71.0833 177.375 69.8125C176.854 68.5208 176.594 67.0625 176.594 65.4375C176.594 64.3958 176.698 63.3542 176.906 62.3125C177.115 61.25 177.469 60.2396 177.969 59.2812C178.469 58.3021 179.135 57.3854 179.969 56.5312C180.802 55.6771 181.844 54.9375 183.094 54.3125C184.365 53.6667 185.854 53.1667 187.562 52.8125C189.292 52.4375 191.302 52.25 193.594 52.25C195.031 52.25 196.458 52.3021 197.875 52.4062C199.292 52.4896 200.656 52.6146 201.969 52.7812C203.302 52.9479 204.552 53.1458 205.719 53.375C206.906 53.5833 207.969 53.8125 208.906 54.0625L208 68.0625H200.781L200.656 67.25C200.531 66.4583 200.354 65.6146 200.125 64.7188C199.896 63.8021 199.51 62.9583 198.969 62.1875C198.448 61.3958 197.719 60.7396 196.781 60.2188C195.865 59.6979 194.635 59.4375 193.094 59.4375ZM242.923 85.875C242.923 87.8333 243.329 89.3021 244.141 90.2812C244.975 91.2604 246.162 91.8125 247.704 91.9375L247.516 97H247.079C245.87 97 244.766 97.0208 243.766 97.0625C242.787 97.125 241.85 97.2083 240.954 97.3125C240.079 97.4167 239.214 97.5417 238.36 97.6875C237.506 97.8542 236.61 98.0521 235.673 98.2812L236.891 91.75C236.329 92.4792 235.589 93.1979 234.673 93.9062C233.777 94.6146 232.766 95.2604 231.641 95.8438C230.537 96.4271 229.36 96.8958 228.11 97.25C226.86 97.6042 225.61 97.7812 224.36 97.7812C223.11 97.7812 221.954 97.5833 220.891 97.1875C219.829 96.7917 218.902 96.1979 218.11 95.4062C217.339 94.5938 216.735 93.5938 216.298 92.4062C215.86 91.1979 215.641 89.7812 215.641 88.1562C215.641 86.7812 215.714 85.4375 215.86 84.125C216.006 82.7917 216.079 81.5625 216.079 80.4375C216.079 79.7917 215.995 79.1875 215.829 78.625C215.662 78.0417 215.412 77.5312 215.079 77.0938C214.766 76.6354 214.36 76.2604 213.86 75.9688C213.36 75.6771 212.777 75.5 212.11 75.4375L212.329 70.375C213.725 70.3333 215.058 70.2396 216.329 70.0938C217.62 69.9479 218.85 69.7708 220.016 69.5625C221.183 69.3542 222.308 69.125 223.391 68.875C224.495 68.6042 225.579 68.3333 226.641 68.0625C226.412 69.4167 226.193 70.8958 225.985 72.5C225.798 74.0833 225.62 75.6667 225.454 77.25C225.287 78.8333 225.152 80.3542 225.048 81.8125C224.964 83.2708 224.923 84.5312 224.923 85.5938C224.923 86.3229 225.027 86.9375 225.235 87.4375C225.443 87.9167 225.725 88.3125 226.079 88.625C226.433 88.9167 226.86 89.125 227.36 89.25C227.86 89.375 228.412 89.4375 229.016 89.4375C229.891 89.4375 230.735 89.2812 231.548 88.9688C232.36 88.6562 233.058 88.3229 233.641 87.9688C233.662 87.5312 233.683 86.9479 233.704 86.2188C233.745 85.4896 233.777 84.6667 233.798 83.75C233.839 82.8125 233.86 81.8125 233.86 80.75C233.881 79.6875 233.891 78.6146 233.891 77.5312C233.891 76.2396 233.881 74.9167 233.86 73.5625C233.86 72.2083 233.808 70.8438 233.704 69.4688C235.891 69.4688 237.923 69.3229 239.798 69.0312C241.673 68.7188 243.266 68.3958 244.579 68.0625C244.245 69.8958 243.964 71.7292 243.735 73.5625C243.527 75.375 243.36 77.0833 243.235 78.6875C243.11 80.2708 243.027 81.6979 242.985 82.9688C242.943 84.2188 242.923 85.1875 242.923 85.875ZM266.283 76.4062C265.366 76.4062 264.449 76.5625 263.533 76.875C262.637 77.1875 261.824 77.5833 261.095 78.0625L260.72 90.7188C261.22 90.8854 261.741 91.0312 262.283 91.1562C262.824 91.2604 263.428 91.3125 264.095 91.3125C265.012 91.3125 265.855 91.0833 266.626 90.625C267.397 90.1458 268.064 89.5 268.626 88.6875C269.189 87.8542 269.626 86.875 269.939 85.75C270.272 84.625 270.439 83.4062 270.439 82.0938C270.439 80.3438 270.053 78.9583 269.283 77.9375C268.533 76.9167 267.533 76.4062 266.283 76.4062ZM259.939 74.0938C261.418 72.1562 263.012 70.6667 264.72 69.625C266.428 68.5833 268.314 68.0625 270.376 68.0625C272.126 68.0625 273.616 68.4062 274.845 69.0938C276.095 69.7812 277.105 70.6771 277.876 71.7812C278.647 72.8854 279.21 74.1458 279.564 75.5625C279.918 76.9583 280.095 78.3854 280.095 79.8438C280.095 81.8021 279.876 83.6042 279.439 85.25C279.022 86.8958 278.439 88.3854 277.689 89.7188C276.939 91.0312 276.053 92.1979 275.033 93.2188C274.033 94.2188 272.939 95.0625 271.751 95.75C270.564 96.4167 269.314 96.9167 268.001 97.25C266.71 97.6042 265.408 97.7812 264.095 97.7812C263.095 97.7812 262.043 97.7292 260.939 97.625C259.855 97.5208 258.751 97.3438 257.626 97.0938C256.522 96.8438 255.408 96.5104 254.283 96.0938C253.158 95.6771 252.053 95.1458 250.97 94.5C251.137 92.6042 251.293 90.6146 251.439 88.5312C251.605 86.4271 251.751 84.3229 251.876 82.2188C252.001 80.0938 252.116 78 252.22 75.9375C252.324 73.8542 252.408 71.8854 252.47 70.0312C252.553 68.1771 252.616 66.4792 252.658 64.9375C252.699 63.375 252.72 62.0521 252.72 60.9688C252.72 60.2604 252.658 59.5521 252.533 58.8438C252.428 58.1354 252.21 57.5 251.876 56.9375C251.543 56.375 251.085 55.9167 250.501 55.5625C249.939 55.1875 249.199 54.9792 248.283 54.9375L248.47 49.9062C249.616 49.8646 250.866 49.7812 252.22 49.6562C253.574 49.5104 254.918 49.3438 256.251 49.1562C257.605 48.9479 258.887 48.7188 260.095 48.4688C261.303 48.2188 262.335 47.9688 263.189 47.7188L259.939 74.0938ZM291.893 86.3125C290.413 85.7083 289.111 85.1146 287.986 84.5312C286.861 83.9271 285.924 83.2812 285.174 82.5938C284.424 81.9062 283.861 81.1458 283.486 80.3125C283.111 79.4583 282.924 78.4688 282.924 77.3438C282.924 76.2812 283.174 75.2083 283.674 74.125C284.195 73.0208 285.018 72.0208 286.143 71.125C287.288 70.2292 288.768 69.5 290.58 68.9375C292.413 68.3542 294.643 68.0625 297.268 68.0625C298.872 68.0625 300.34 68.1979 301.674 68.4688C303.007 68.7188 304.153 69.1042 305.111 69.625C306.07 70.1458 306.809 70.7812 307.33 71.5312C307.872 72.2812 308.143 73.1562 308.143 74.1562C308.143 75.4479 307.757 76.625 306.986 77.6875C306.236 78.7292 305.174 79.4271 303.799 79.7812C303.195 79.2396 302.549 78.6562 301.861 78.0312C301.174 77.4062 300.455 76.8333 299.705 76.3125C298.955 75.7708 298.174 75.3333 297.361 75C296.549 74.6458 295.726 74.4688 294.893 74.4688C294.226 74.4688 293.695 74.6146 293.299 74.9062C292.924 75.1979 292.736 75.5833 292.736 76.0625C292.736 76.375 292.893 76.6771 293.205 76.9688C293.518 77.2396 293.924 77.5 294.424 77.75C294.924 78 295.476 78.2396 296.08 78.4688C296.684 78.6979 297.278 78.9271 297.861 79.1562L298.674 79.4688C300.361 80.1354 301.788 80.7917 302.955 81.4375C304.122 82.0833 305.07 82.7708 305.799 83.5C306.528 84.2083 307.059 84.9792 307.393 85.8125C307.726 86.6458 307.893 87.5833 307.893 88.625C307.893 89.75 307.601 90.8646 307.018 91.9688C306.455 93.0729 305.57 94.0521 304.361 94.9062C303.153 95.7604 301.622 96.4583 299.768 97C297.934 97.5208 295.757 97.7812 293.236 97.7812C291.59 97.7812 290.08 97.6458 288.705 97.375C287.351 97.1042 286.184 96.7083 285.205 96.1875C284.247 95.6458 283.497 94.9896 282.955 94.2188C282.434 93.4271 282.174 92.5208 282.174 91.5C282.174 90.125 282.57 88.9896 283.361 88.0938C284.174 87.1979 285.288 86.5625 286.705 86.1875C287.08 86.6667 287.549 87.2083 288.111 87.8125C288.674 88.3958 289.33 88.9583 290.08 89.5C290.83 90.0208 291.663 90.4688 292.58 90.8438C293.497 91.1979 294.486 91.375 295.549 91.375C296.257 91.375 296.861 91.2083 297.361 90.875C297.861 90.5417 298.111 90.1042 298.111 89.5625C298.111 89.2292 297.903 88.9271 297.486 88.6562C297.09 88.3646 296.58 88.0938 295.955 87.8438C295.351 87.5729 294.684 87.3125 293.955 87.0625C293.226 86.8125 292.538 86.5625 291.893 86.3125ZM337.221 93.2812C335.513 94.7188 333.534 95.8333 331.284 96.625C329.055 97.3958 326.638 97.7812 324.034 97.7812C321.93 97.7812 320.034 97.4688 318.346 96.8438C316.68 96.2188 315.253 95.3229 314.065 94.1562C312.898 92.9896 311.992 91.5729 311.346 89.9062C310.721 88.2396 310.409 86.375 310.409 84.3125C310.409 82.0833 310.784 79.9792 311.534 78C312.305 76.0208 313.388 74.3021 314.784 72.8438C316.2 71.3646 317.909 70.1979 319.909 69.3438C321.909 68.4896 324.138 68.0625 326.596 68.0625C328.138 68.0625 329.565 68.2604 330.878 68.6562C332.211 69.0312 333.367 69.5521 334.346 70.2188C335.325 70.8854 336.086 71.6667 336.628 72.5625C337.19 73.4583 337.471 74.4167 337.471 75.4375C337.471 77.4583 336.711 78.9792 335.19 80C333.669 81 331.419 81.5 328.44 81.5C328.398 80.6458 328.315 79.8229 328.19 79.0312C328.086 78.2396 327.898 77.5417 327.628 76.9375C327.378 76.3125 327.034 75.8229 326.596 75.4688C326.159 75.0938 325.607 74.9062 324.94 74.9062C324.19 74.9062 323.513 75.0938 322.909 75.4688C322.305 75.8438 321.794 76.3854 321.378 77.0938C320.961 77.8021 320.638 78.6562 320.409 79.6562C320.18 80.6354 320.065 81.7396 320.065 82.9688C320.065 84.3021 320.253 85.4583 320.628 86.4375C321.003 87.3958 321.534 88.1875 322.221 88.8125C322.909 89.4375 323.732 89.9062 324.69 90.2188C325.669 90.5104 326.753 90.6562 327.94 90.6562C329.003 90.6562 330.2 90.5417 331.534 90.3125C332.867 90.0833 334.128 89.7292 335.315 89.25L337.221 93.2812ZM352.644 77.75C352.602 78.1667 352.55 78.75 352.488 79.5C352.446 80.25 352.404 81.1042 352.363 82.0625C352.321 83 352.279 84.0208 352.238 85.125C352.217 86.2292 352.206 87.3333 352.206 88.4375C352.206 89.8125 352.217 91.2292 352.238 92.6875C352.258 94.1458 352.352 95.5833 352.519 97C350.31 97 348.258 97.125 346.363 97.375C344.488 97.6458 342.894 97.9479 341.581 98.2812C341.852 96.7812 342.081 95.2188 342.269 93.5938C342.477 91.9688 342.654 90.4062 342.8 88.9062C342.946 87.4062 343.05 86.0104 343.113 84.7188C343.196 83.4271 343.238 82.3542 343.238 81.5C343.238 79.4167 342.883 77.8958 342.175 76.9375C341.488 75.9792 340.363 75.4375 338.8 75.3125L339.019 70.25C340.144 70.2083 341.3 70.125 342.488 70C343.675 69.8542 344.831 69.6875 345.956 69.5C347.102 69.2917 348.185 69.0625 349.206 68.8125C350.248 68.5625 351.196 68.3125 352.05 68.0625L350.863 74.2812C351.508 73.3438 352.206 72.4896 352.956 71.7188C353.706 70.9479 354.477 70.2917 355.269 69.75C356.06 69.2083 356.852 68.7917 357.644 68.5C358.456 68.2083 359.258 68.0625 360.05 68.0625C361.8 68.0625 363.154 68.5521 364.113 69.5312C365.092 70.5104 365.581 71.9062 365.581 73.7188C365.581 75.0104 365.331 76.0625 364.831 76.875C364.352 77.6875 363.727 78.4271 362.956 79.0938C362.623 78.8021 362.227 78.5312 361.769 78.2812C361.331 78.0104 360.863 77.7708 360.363 77.5625C359.863 77.3542 359.342 77.1979 358.8 77.0938C358.279 76.9688 357.758 76.9062 357.238 76.9062C356.904 76.9062 356.519 76.9271 356.081 76.9688C355.665 76.9896 355.238 77.0417 354.8 77.125C354.363 77.1875 353.956 77.2708 353.581 77.375C353.206 77.4792 352.894 77.6042 352.644 77.75ZM371.348 58.4062C371.348 57.4479 371.504 56.625 371.816 55.9375C372.129 55.2292 372.535 54.6562 373.035 54.2188C373.535 53.7604 374.108 53.4271 374.754 53.2188C375.42 53.0104 376.098 52.9062 376.785 52.9062C377.452 52.9062 378.108 53.0104 378.754 53.2188C379.42 53.4271 380.004 53.7604 380.504 54.2188C381.025 54.6562 381.441 55.2292 381.754 55.9375C382.066 56.625 382.223 57.4479 382.223 58.4062C382.223 59.2812 382.077 60.0729 381.785 60.7812C381.514 61.4896 381.129 62.1042 380.629 62.625C380.15 63.125 379.577 63.5208 378.91 63.8125C378.264 64.0833 377.556 64.2188 376.785 64.2188C376.014 64.2188 375.295 64.0833 374.629 63.8125C373.983 63.5208 373.41 63.125 372.91 62.625C372.431 62.1042 372.045 61.4896 371.754 60.7812C371.483 60.0729 371.348 59.2812 371.348 58.4062ZM384.473 97H383.754C381.004 97 378.493 97.0833 376.223 97.25C373.973 97.4167 371.795 97.7604 369.691 98.2812C369.9 96.8229 370.108 95.3958 370.316 94C370.545 92.5833 370.743 91.1875 370.91 89.8125C371.077 88.4375 371.212 87.0625 371.316 85.6875C371.42 84.3125 371.473 82.9167 371.473 81.5C371.473 79.4375 371.118 77.9271 370.41 76.9688C369.723 75.9896 368.608 75.4375 367.066 75.3125L367.254 70.25C370.087 70.1458 372.733 69.8958 375.191 69.5C377.67 69.0833 379.973 68.6042 382.098 68.0625C381.639 71.0417 381.223 74.0729 380.848 77.1562C380.493 80.2188 380.316 83.1667 380.316 86C380.316 88.0833 380.712 89.5938 381.504 90.5312C382.316 91.4688 383.368 91.9375 384.66 91.9375L384.473 97ZM403.208 76.4062C402.291 76.4062 401.374 76.5625 400.458 76.875C399.562 77.1875 398.749 77.5833 398.02 78.0625L397.645 90.7188C398.145 90.8854 398.666 91.0312 399.208 91.1562C399.749 91.2604 400.353 91.3125 401.02 91.3125C401.937 91.3125 402.78 91.0833 403.551 90.625C404.322 90.1458 404.989 89.5 405.551 88.6875C406.114 87.8542 406.551 86.875 406.864 85.75C407.197 84.625 407.364 83.4062 407.364 82.0938C407.364 80.3438 406.978 78.9583 406.208 77.9375C405.458 76.9167 404.458 76.4062 403.208 76.4062ZM396.864 74.0938C398.343 72.1562 399.937 70.6667 401.645 69.625C403.353 68.5833 405.239 68.0625 407.301 68.0625C409.051 68.0625 410.541 68.4062 411.77 69.0938C413.02 69.7812 414.03 70.6771 414.801 71.7812C415.572 72.8854 416.135 74.1458 416.489 75.5625C416.843 76.9583 417.02 78.3854 417.02 79.8438C417.02 81.8021 416.801 83.6042 416.364 85.25C415.947 86.8958 415.364 88.3854 414.614 89.7188C413.864 91.0312 412.978 92.1979 411.958 93.2188C410.958 94.2188 409.864 95.0625 408.676 95.75C407.489 96.4167 406.239 96.9167 404.926 97.25C403.635 97.6042 402.333 97.7812 401.02 97.7812C400.02 97.7812 398.968 97.7292 397.864 97.625C396.78 97.5208 395.676 97.3438 394.551 97.0938C393.447 96.8438 392.333 96.5104 391.208 96.0938C390.083 95.6771 388.978 95.1458 387.895 94.5C388.062 92.6042 388.218 90.6146 388.364 88.5312C388.53 86.4271 388.676 84.3229 388.801 82.2188C388.926 80.0938 389.041 78 389.145 75.9375C389.249 73.8542 389.333 71.8854 389.395 70.0312C389.478 68.1771 389.541 66.4792 389.583 64.9375C389.624 63.375 389.645 62.0521 389.645 60.9688C389.645 60.2604 389.583 59.5521 389.458 58.8438C389.353 58.1354 389.135 57.5 388.801 56.9375C388.468 56.375 388.01 55.9167 387.426 55.5625C386.864 55.1875 386.124 54.9792 385.208 54.9375L385.395 49.9062C386.541 49.8646 387.791 49.7812 389.145 49.6562C390.499 49.5104 391.843 49.3438 393.176 49.1562C394.53 48.9479 395.812 48.7188 397.02 48.4688C398.228 48.2188 399.26 47.9688 400.114 47.7188L396.864 74.0938ZM428.568 85.3438C428.713 86.1146 428.984 86.8333 429.38 87.5C429.776 88.1458 430.297 88.7083 430.943 89.1875C431.588 89.6458 432.349 90.0104 433.224 90.2812C434.12 90.5312 435.151 90.6562 436.318 90.6562C437.38 90.6562 438.568 90.5625 439.88 90.375C441.213 90.1875 442.474 89.8542 443.661 89.375L445.661 93.2812C443.953 94.7188 442.026 95.8333 439.88 96.625C437.755 97.3958 435.39 97.7812 432.786 97.7812C430.62 97.7812 428.682 97.4583 426.974 96.8125C425.286 96.1458 423.859 95.2188 422.693 94.0312C421.547 92.8438 420.672 91.4271 420.068 89.7812C419.463 88.1146 419.161 86.2917 419.161 84.3125C419.161 82.1458 419.495 80.0833 420.161 78.125C420.828 76.1458 421.797 74.4167 423.068 72.9375C424.359 71.4375 425.932 70.25 427.786 69.375C429.661 68.5 431.797 68.0625 434.193 68.0625C436.234 68.0625 438.047 68.3542 439.63 68.9375C441.213 69.5 442.547 70.3021 443.63 71.3438C444.713 72.3646 445.536 73.5938 446.099 75.0312C446.661 76.4479 446.943 78.0104 446.943 79.7188C446.943 80.3021 446.911 80.9062 446.849 81.5312C446.786 82.1354 446.724 82.6979 446.661 83.2188C446.578 83.8229 446.495 84.4062 446.411 84.9688C445.161 85.1562 443.682 85.2917 441.974 85.375C440.265 85.4375 438.443 85.4688 436.505 85.4688C435.859 85.4688 435.182 85.4688 434.474 85.4688C433.765 85.4479 433.057 85.4375 432.349 85.4375C431.661 85.4167 430.984 85.4062 430.318 85.4062C429.672 85.3854 429.088 85.3646 428.568 85.3438ZM433.943 74.9062C433.401 74.9062 432.87 75.0104 432.349 75.2188C431.828 75.4271 431.338 75.75 430.88 76.1875C430.422 76.625 430.015 77.1771 429.661 77.8438C429.328 78.4896 429.068 79.2604 428.88 80.1562C429.693 80.1354 430.568 80.0833 431.505 80C432.463 79.9167 433.359 79.8333 434.193 79.75C435.026 79.6667 435.734 79.5938 436.318 79.5312C436.901 79.4479 437.245 79.3854 437.349 79.3438V78.875C437.349 77.7292 437.057 76.7812 436.474 76.0312C435.911 75.2812 435.068 74.9062 433.943 74.9062Z" fill="#08330C"/>
<path d="M110.858 54.7548H99.1656V46.3121C99.1656 45.3143 98.3596 44.5083 97.3618 44.5083L61.4417 44.5088C57.6169 44.5088 54.5084 47.6174 54.5084 51.4421V100.857C54.5084 105.616 58.3839 109.492 63.1429 109.492H110.857C115.616 109.492 119.492 105.616 119.492 100.857V63.3897C119.492 58.6309 115.615 54.7546 110.857 54.7546L110.858 54.7548ZM61.4425 48.1159H95.5592V54.7548H61.4425C59.6133 54.7548 58.1163 53.2709 58.1163 51.4416C58.1163 49.6129 59.6133 48.1159 61.4425 48.1159ZM115.885 100.857C115.885 103.633 113.633 105.885 110.857 105.885H63.1433C60.3677 105.885 58.1159 103.633 58.1159 100.857V57.5174C59.1008 58.055 60.2395 58.3618 61.4421 58.3618H110.857C113.633 58.3618 115.885 60.6134 115.885 63.3892L115.885 100.857Z" fill="#07330C"/>
<path d="M110.87 61.5853H97.2337C96.3126 61.5853 95.4299 62.3784 95.4299 63.3892V75.1196C95.4299 76.1174 96.2359 76.9234 97.2337 76.9234H110.87C111.868 76.9234 112.674 76.1174 112.674 75.1196V63.402C112.674 62.3913 111.868 61.5852 110.87 61.5852V61.5853ZM109.054 73.3158H99.0251V65.2053H109.054V73.3158Z" fill="#07330C"/>
<path d="M110.87 81.8736H63.1561C62.1583 81.8736 61.3522 82.6796 61.3522 83.6774C61.3522 84.6752 62.1582 85.4812 63.1561 85.4812H110.87C111.868 85.4812 112.674 84.6752 112.674 83.6774C112.674 82.6796 111.868 81.8736 110.87 81.8736Z" fill="#07330C"/>
<path d="M63.1561 76.9239H87.0124C88.0102 76.9239 88.8163 76.1179 88.8163 75.1201C88.8163 74.1223 88.0102 73.3163 87.0124 73.3163L63.1561 73.3168C62.1583 73.3168 61.3522 74.1228 61.3522 75.1206C61.3522 76.1184 62.1582 76.9239 63.1561 76.9239V76.9239Z" fill="#07330C"/>
<path d="M110.87 90.4315H63.1561C62.1583 90.4315 61.3522 91.2375 61.3522 92.2353C61.3522 93.2331 62.1582 94.0392 63.1561 94.0392H110.87C111.868 94.0392 112.674 93.2331 112.674 92.2353C112.674 91.2375 111.868 90.4315 110.87 90.4315Z" fill="#07330C"/>
<path d="M110.87 98.9894H63.1561C62.1583 98.9894 61.3522 99.7954 61.3522 100.793C61.3522 101.791 62.1582 102.597 63.1561 102.597H110.87C111.868 102.597 112.674 101.791 112.674 100.793C112.674 99.7949 111.868 98.9894 110.87 98.9894Z" fill="#07330C"/>
<path d="M63.2072 64.8478L66.5587 69.2484H68.1324V62.2255H66.5587V66.7412L63.105 62.2255H61.6464V69.2484H63.2071L63.2072 64.8478Z" fill="#07330C"/>
<path d="M75.04 67.8668H71.4329V66.4082H74.5797V65.0652H71.4329V63.6195H74.9249V62.2252H69.8592V69.2481H75.04V67.8668Z" fill="#07330C"/>
<path d="M79.1585 69.2484L80.6939 64.3615L82.2287 69.2484H83.3929L85.8488 62.2255H84.1476L82.7533 66.268L81.5124 62.2255H79.8749L78.6216 66.268L77.2397 62.2255H75.5385L77.9944 69.2484H79.1585Z" fill="#07330C"/>
<path d="M89.1616 67.9442C88.522 67.9442 87.8186 67.6115 87.0639 66.9464L86.1298 68.0977C87.0255 68.9161 88.0229 69.3386 89.1362 69.3386C90.6585 69.3386 91.7071 68.4558 91.7071 67.215C91.7584 65.9995 90.927 65.3604 89.5964 65.0405C88.637 64.7845 88.074 64.6186 88.0487 64.1195C88.1 63.7229 88.3172 63.4415 88.8931 63.4415C89.5457 63.4415 90.1724 63.6716 90.7861 64.1324L91.5792 62.9812C90.8628 62.4313 90.0185 62.0731 88.9439 62.0601C87.3832 62.1498 86.475 62.7894 86.4237 64.1454C86.4237 65.4246 87.1784 66.0129 88.7904 66.3711C89.4814 66.5375 90.1334 66.7293 90.0826 67.2539C90.108 67.7012 89.5964 67.9697 89.1615 67.9443L89.1616 67.9442Z" fill="#07330C"/>
</g>
<defs>
<clipPath id="clip0_2_32">
<rect y="153" width="153" height="516" rx="38" transform="rotate(-90 0 153)" fill="white"/>
</clipPath>
</defs>
</svg>
